<?xml version="1.0" encoding="UTF-8"?>
<svg width="38px" height="33px" viewBox="0 0 38 33" version="1.1" xmlns="http://www.w3.org/2000/svg" xmlns:xlink="http://www.w3.org/1999/xlink">
    <title>icon_AtTabBar_home-off备份</title>
    <g id="icon_AtTabBar_home-off备份" stroke="none" stroke-width="1" fill="none" fill-rule="evenodd">
        <path d="M20.399633,12.3105901 C20.706916,12.3105901 20.983578,12.4423545 21.1769085,12.6527583 C21.3678835,12.753576 21.5338987,12.9076748 21.6510092,13.1086081 C22.1115596,13.899613 22.6561468,14.637835 23.2708257,15.3003892 C24.7504587,16.8960561 26.6910092,18.1041564 28.8818349,18.7936558 C29.5111927,18.9922375 29.8620183,19.6662342 29.6653211,20.2999978 C29.5053211,20.8134312 29.0337615,21.1423091 28.5247706,21.1423091 C28.4066055,21.1423091 28.2866055,21.1249609 28.1677064,21.0876806 C25.5831193,20.2737909 23.2851376,18.8394255 21.5229358,16.9396112 L21.457,16.866 L21.458013,21.8482474 C21.4683735,21.9118571 21.4737615,21.9771399 21.4737615,22.0436781 L21.4737615,31.7978055 C21.4737615,32.461467 20.9387156,33 20.2788991,33 C19.6190826,33 19.0840367,32.461467 19.0840367,31.7981746 L19.084,23.459 L18.884,23.458 L18.8844039,27.0137578 C18.8847706,27.6770502 18.3493578,28.2155832 17.6895413,28.2155832 C17.0297248,28.2155832 16.4946789,27.6770502 16.4946789,27.0137578 L16.4946789,22.0673012 C16.4946789,21.9646768 16.5074815,21.8650533 16.5315655,21.7699564 L16.533,16.97 L16.2651667,17.251435 C14.5459837,18.9958956 12.3605912,20.3189865 9.91889908,21.0873115 C9.80336851,21.1238777 9.68295024,21.1424254 9.56183486,21.1423096 C9.05284404,21.1423096 8.58165138,20.8138003 8.4212844,20.2996287 C8.22458716,19.6658651 8.57541284,18.9918684 9.20477064,18.7932867 C11.3963303,18.1030491 13.3368807,16.895687 14.8165138,15.2992819 C15.4304587,14.6370968 15.9757798,13.8999821 16.4363303,13.108239 C16.5103239,12.9815862 16.603744,12.873571 16.7105269,12.785761 C16.9010057,12.4989351 17.2251445,12.310221 17.5930275,12.310221 L17.5930275,12.310221 Z M19,3.55271368e-15 C25.0649541,3.55271368e-15 30,4.96380475 30,11.0641023 L30,15.06342 C30,15.7270816 29.4645872,16.2656145 28.8051376,16.2656145 C28.1453211,16.2656145 27.6102752,15.7270816 27.6102752,15.0637891 L27.6102752,11.0641023 C27.6102752,6.28891325 23.7475229,2.40365084 19,2.40365084 C14.2524771,2.40365084 10.3897248,6.28891325 10.3897248,11.0641023 L10.3897248,15.06342 C10.3897248,15.7270816 9.85431193,16.2652454 9.19486239,16.2652454 C8.53541284,16.2652454 8,15.7267125 8,15.06342 L8,11.0641023 C8,4.96343564 12.9350459,3.55271368e-15 19,3.55271368e-15 Z M17.6097247,6.03224896 C18.467078,5.53437126 19.5233807,5.53437126 20.380734,6.03224896 C21.2380872,6.53012665 21.7662385,7.45024257 21.7662385,8.44599794 C21.7662385,9.44175331 21.2380872,10.3618692 20.380734,10.8597469 C19.5233807,11.3576246 18.467078,11.3576246 17.6097247,10.8597469 C16.7523715,10.3618692 16.2242202,9.44175331 16.2242202,8.44599794 C16.2242202,7.45024257 16.7523715,6.53012665 17.6097247,6.03224896 Z" id="形状结合" fill="#C1F2EA" fill-rule="nonzero"></path>
    </g>
</svg>