<?xml version="1.0" encoding="UTF-8"?>
<svg width="33px" height="33px" viewBox="0 0 33 33" version="1.1" xmlns="http://www.w3.org/2000/svg" xmlns:xlink="http://www.w3.org/1999/xlink">
    <title>icon_average</title>
    <defs>
        <filter id="filter-1">
            <feColorMatrix in="SourceGraphic" type="matrix" values="0 0 0 0 0.780392 0 0 0 0 0.894118 0 0 0 0 0.874510 0 0 0 1.000000 0"></feColorMatrix>
        </filter>
    </defs>
    <g id="icon_average" stroke="none" stroke-width="1" fill="none" fill-rule="evenodd">
        <g filter="url(#filter-1)" id="reliangbiao">
            <g transform="translate(1.000000, 1.000000)">
                <path d="M15.75,4 C18.7336855,4 21.595167,5.18526445 23.7049513,7.29504871 C25.8147355,9.40483297 27,12.2663145 27,15.25 C27,18.3566017 25.7408009,21.1691017 23.7049513,23.2049513 C21.6691017,25.2408009 18.8566017,26.5 15.75,26.5 C12.6433983,26.5 9.83089828,25.2408009 7.79504871,23.2049513 C5.75919914,21.1691017 4.5,18.3566017 4.5,15.25 C4.5,12.1433983 5.75919914,9.33089828 7.79504871,7.29504871 C9.83089828,5.25919914 12.6433983,4 15.75,4 Z" id="形状" stroke="#000000" fill-rule="nonzero"></path>
                <path d="M15.5035679,3.62577968e-07 C9.23388678,-0.00135093859 3.58087004,3.7745521 1.18094252,9.56672364 C-1.21898501,15.3588952 0.106897401,22.0264343 4.54023154,26.4597684 C8.97356568,30.8931026 15.6411048,32.218985 21.4332763,29.8190575 C27.2254479,27.41913 31.0013509,21.7661133 31,15.4964321 C30.9907899,6.94180697 24.0581931,0.00921016523 15.5035679,3.62577968e-07 Z M15.5035679,29.0746078 C8.00454853,29.0746078 1.9253922,22.9954515 1.9253922,15.4964321 C1.9253922,7.99741275 8.00454853,1.91825642 15.5035679,1.91825642 C23.0025873,1.91825642 29.0817436,7.99741275 29.0817436,15.4964321 C29.0743748,22.9923971 22.9995329,29.067239 15.5035679,29.0746078 Z" id="形状" fill="#000000" fill-rule="nonzero"></path>
                <path d="M13.3236318,8.72365935 C13.6555639,8.72365935 13.9565157,8.92613841 14.0815435,9.23483526 L17.6675166,18.2047472 L19.0837603,14.6641381 C19.2087029,14.356082 19.5081366,14.1547084 19.8405655,14.1551755 L23.3701102,14.1551755 C23.8182186,14.1551755 24.1844503,14.5203009 24.1844503,14.9684092 C24.1844503,15.4165175 23.819325,15.7827493 23.3701102,15.7827493 L20.3904664,15.7827493 L18.422109,20.6997702 C18.2984276,21.0096724 17.9984217,21.2129565 17.6647506,21.2129565 C17.3310794,21.2129565 17.0310735,21.0096724 16.9073921,20.6997702 L13.3236318,11.7320712 L11.9073882,15.2726803 C11.7824456,15.5807364 11.4830119,15.78211 11.150583,15.7816429 L7.62103823,15.7816429 C7.17197421,15.7810352 6.80791633,15.417472 6.80669812,14.9684092 C6.80669812,14.5203009 7.17182344,14.1540691 7.62103823,14.1540691 L10.5984692,14.1540691 L12.5668266,9.23704816 C12.6898672,8.92685096 12.9899236,8.72330391 13.3236318,8.72365935 L13.3236318,8.72365935 Z" id="路径" fill="#000000" fill-rule="nonzero"></path>
            </g>
        </g>
    </g>
</svg>