<?xml version="1.0" encoding="UTF-8"?>
<svg width="15px" height="15px" viewBox="0 0 15 15" version="1.1" xmlns="http://www.w3.org/2000/svg" xmlns:xlink="http://www.w3.org/1999/xlink">
    <title>icon_home_time</title>
    <g id="icon_home_time" stroke="none" stroke-width="1" fill="none" fill-rule="evenodd">
        <path d="M7.48337817,2.857146 C8.76539066,2.85576082 10.0071072,3.31220668 10.9914889,4.14670484 L10.9914889,4.14670484 L12.1936313,2.92525949 C12.2211067,2.89488587 12.2603128,2.87828766 12.3008856,2.8798526 C12.3412979,2.87916576 12.380164,2.89562003 12.40814,2.92525949 L12.40814,2.92525949 L13.051666,3.57911871 C13.1097621,3.63814767 13.1097621,3.73804283 13.051666,3.79707178 L13.051666,3.79707178 L11.8316479,5.03667989 C12.5422079,5.97660251 12.9667563,7.15264097 12.9667563,8.42857458 C12.9667563,11.502621 10.5088444,14 7.48337817,14 C4.45791197,14 2,11.502621 2,8.42857458 C2,5.35452812 4.45344304,2.857146 7.48337817,2.857146 Z M7.47890924,3.90604832 C5.02546619,3.90604832 3.0278541,5.93573631 3.0278541,8.42857458 C3.0278541,10.9214128 5.02546619,12.9511008 7.47890924,12.9511008 C9.93235228,12.9511008 11.9299644,10.9214128 11.9299644,8.42857458 C11.9299644,5.93573631 9.93235228,3.90604832 7.47890924,3.90604832 Z M7.9413354,5.79173137 C7.97692557,5.79173137 8.00361821,5.81898292 8.00806698,5.85531832 L8.00806698,5.85531832 L8.00806698,9.2935559 C8.00806698,9.3298913 7.98137435,9.35714286 7.94578417,9.35714286 L7.94578417,9.35714286 L6.99819567,9.35714286 C6.96260549,9.35714286 6.93591286,9.3298913 6.93591286,9.2935559 L6.93591286,9.2935559 L6.93591286,5.85531832 C6.93591286,5.81898292 6.96260549,5.79173137 6.99819567,5.79173137 L6.99819567,5.79173137 Z M10.2591458,1 C10.2902872,1 10.3214286,1.02725155 10.3214286,1.06358696 L10.3214286,1.06358696 L10.3214286,2.39891304 C10.3214286,2.43524845 10.2947359,2.4625 10.2591458,2.4625 L10.2591458,2.4625 L4.83609234,2.4625 C4.80050216,2.4625 4.77380952,2.43070652 4.77380952,2.39437112 L4.77380952,2.39437112 L4.77380952,1.06358696 C4.77380952,1.02725155 4.80050216,1 4.83609234,1 L4.83609234,1 Z" id="形状结合" fill="#FE607F" fill-rule="nonzero"></path>
    </g>
</svg>