<?xml version="1.0" encoding="UTF-8"?>
<svg width="38px" height="33px" viewBox="0 0 38 33" version="1.1" xmlns="http://www.w3.org/2000/svg" xmlns:xlink="http://www.w3.org/1999/xlink">
    <title>icon_AtTabBar_home-on</title>
    <g id="icon_AtTabBar_home-on" stroke="none" stroke-width="1" fill="none" fill-rule="evenodd">
        <g id="编组-14">
            <rect id="矩形" fill="#C7E4DF" x="0" y="9" width="38" height="18" rx="9"></rect>
            <path d="M17.5930275,12.2388991 L20.399633,12.2392661 C20.7078699,12.2392661 20.9852954,12.3710816 21.1787066,12.5814021 C21.3690318,12.6807462 21.5343039,12.8335827 21.6510092,13.0326606 C22.1115596,13.8190826 22.6561468,14.5530275 23.2708257,15.2117431 C24.7504587,16.7981651 26.6910092,17.9992661 28.8818349,18.6847706 C29.5111927,18.8822018 29.8620183,19.5522936 29.6653211,20.1823853 C29.5053211,20.692844 29.0337615,21.0198165 28.5247706,21.0198165 C28.4066055,21.0198165 28.2866055,21.0025688 28.1677064,20.9655046 C25.5831193,20.1563303 23.2851376,18.7302752 21.5229358,16.8414679 L21.457,16.768 L21.4580777,21.7220605 C21.468396,21.7851767 21.4737615,21.8499485 21.4737615,21.9159633 L21.4737615,31.613578 C21.4737615,32.2733945 20.9387156,32.8088073 20.2788991,32.8088073 C19.6190826,32.8088073 19.0840367,32.2733945 19.0840367,31.613945 L19.084,23.323 L18.884,23.322 L18.8844039,26.8572477 C18.8847706,27.5166972 18.3493578,28.0521101 17.6895413,28.0521101 C17.0297248,28.0521101 16.4946789,27.5166972 16.4946789,26.8572477 L16.4946789,21.9394495 C16.4946789,21.8374384 16.5074768,21.7384097 16.5315522,21.6438795 L16.533,16.872 L16.2651667,17.1514851 C14.5459837,18.8858387 12.3605912,20.201264 9.91889908,20.9651376 C9.80336851,21.0014919 9.68295024,21.0199321 9.56183486,21.0198171 C9.05284404,21.0198171 8.58165138,20.693211 8.4212844,20.1820183 C8.22458716,19.5519266 8.57541284,18.8818349 9.20477064,18.6844037 C11.3963303,17.9981651 13.3368807,16.7977982 14.8165138,15.2106422 C15.4304587,14.5522936 15.9757798,13.8194495 16.4363303,13.0322936 C16.5103239,12.9063746 16.603744,12.7989852 16.7105269,12.7116839 C16.9010057,12.4265198 17.2251445,12.2388991 17.5930275,12.2388991 L17.5930275,12.2388991 Z M19,3.55271368e-15 C25.0649541,3.55271368e-15 30,4.93504587 30,11 L30,14.9761468 C30,15.6359633 29.4645872,16.1713761 28.8051376,16.1713761 C28.1453211,16.1713761 27.6102752,15.6359633 27.6102752,14.9765138 L27.6102752,11 C27.6102752,6.25247706 23.7475229,2.38972477 19,2.38972477 C14.2524771,2.38972477 10.3897248,6.25247706 10.3897248,11 L10.3897248,14.9761468 C10.3897248,15.6359633 9.85431193,16.1710092 9.19486239,16.1710092 C8.53541284,16.1710092 8,15.6355963 8,14.9761468 L8,11 C8,4.9346789 12.9350459,3.55271368e-15 19,3.55271368e-15 Z M17.6097247,5.99729981 C18.467078,5.50230668 19.5233807,5.50230668 20.380734,5.99729981 C21.2380872,6.49229294 21.7662385,7.40707797 21.7662385,8.39706422 C21.7662385,9.38705047 21.2380872,10.3018355 20.380734,10.7968286 C19.5233807,11.2918218 18.467078,11.2918218 17.6097247,10.7968286 C16.7523715,10.3018355 16.2242202,9.38705047 16.2242202,8.39706422 C16.2242202,7.40707797 16.7523715,6.49229294 17.6097247,5.99729981 Z" id="形状结合" fill="#90C7BE" fill-rule="nonzero"></path>
        </g>
    </g>
</svg>