<?xml version="1.0" encoding="UTF-8"?>
<svg width="36px" height="36px" viewBox="0 0 36 36" version="1.1" xmlns="http://www.w3.org/2000/svg" xmlns:xlink="http://www.w3.org/1999/xlink">
    <title>icon_more</title>
    <g id="icon_more" stroke="none" stroke-width="1" fill="none" fill-rule="evenodd">
        <g id="编组-11">
            <circle id="椭圆形" fill="#FFFFFF" cx="18" cy="18" r="18"></circle>
            <path d="M9.43720703,15.4308268 C8.09160156,15.4308268 7,16.4784831 7,17.7704753 C7,19.0633464 8.09160156,20.1110026 9.43720703,20.1110026 C10.7828125,20.1110026 11.8744146,19.0633464 11.8744146,17.7704753 C11.875293,16.4784831 10.7836914,15.4308268 9.43720703,15.4308268 Z M26.5354492,15.4308268 C25.1889648,15.4308268 24.0982422,16.4784831 24.0982422,17.7704753 C24.0982422,19.0633464 25.1889648,20.1110026 26.5354492,20.1110026 C27.8810547,20.1110026 28.9726562,19.0633464 28.9726562,17.7704753 C28.9726562,16.4784831 27.8810547,15.4308268 26.5354492,15.4308268 L26.5354492,15.4308268 Z M17.9863281,14.0026042 C15.9639648,14.0026042 14.3239258,15.5767253 14.3239258,17.5182292 C14.3239258,19.4597331 15.9639648,21.0338542 17.9863281,21.0338542 C20.0086914,21.0338542 21.6487305,19.4597331 21.6487305,17.5182292 C21.6487305,15.5767253 20.0086914,14.0026042 17.9863281,14.0026042 L17.9863281,14.0026042 Z" id="形状" fill="#90C7BE" fill-rule="nonzero"></path>
        </g>
    </g>
</svg>