<?xml version="1.0" encoding="UTF-8"?>
<svg width="24px" height="24px" viewBox="0 0 24 24" version="1.1" xmlns="http://www.w3.org/2000/svg" xmlns:xlink="http://www.w3.org/1999/xlink">
    <title>icon_charge-off</title>
    <g id="icon_charge-off" stroke="none" stroke-width="1" fill="none" fill-rule="evenodd">
        <path d="M17.519643,9.26726374 L14.8762708,9.26726374 C14.3089717,9.26726374 12.7036361,9.54487818 12.1604774,9.20691278 C12.0518456,8.82066661 12.4018812,8.12059543 12.4984428,7.78263003 C12.7760572,6.80494441 13.0416015,5.83932899 13.3192159,4.84957318 L14.5020948,0.588795122 C14.6590073,0.0335662538 13.9347957,-0.207837602 13.6330409,0.214619146 L4.07344821,13.3349187 C3.85618474,13.6366735 4.15793956,14.0591303 4.49590496,14.0591303 L8.37043684,14.0591303 C8.63598109,14.0591303 9.66194747,13.8901476 9.83093017,14.1436216 C9.98784268,14.3488149 9.68608786,14.9885351 9.6257369,15.2178688 C8.90152533,17.7284689 8.20145415,20.239069 7.50138296,22.7496691 C7.34447046,23.304898 8.06868202,23.5463018 8.37043684,23.1238451 L17.9179593,10.0035455 C18.147293,9.68972049 17.8576084,9.26726374 17.519643,9.26726374 Z" id="路径" fill="#A4D5CD" fill-rule="nonzero"></path>
    </g>
</svg>