<?xml version="1.0" encoding="UTF-8"?>
<svg width="24px" height="24px" viewBox="0 0 24 24" version="1.1" xmlns="http://www.w3.org/2000/svg" xmlns:xlink="http://www.w3.org/1999/xlink">
    <title>icon_bind-on</title>
    <g id="icon_bind-on" stroke="none" stroke-width="1" fill="none" fill-rule="evenodd">
        <path d="M11.992284,7.66666667 C12.5666631,7.67078059 13.1358935,7.77139778 13.6743729,7.9639928 L13.6743729,7.9639928 L13.6743729,10.4912649 C13.4782607,10.3337122 13.2600641,10.2035896 13.0262286,10.1047409 C12.6995349,9.96933611 12.3479258,9.89855881 11.992284,9.89661264 C10.515336,9.90478983 9.32252215,11.06052 9.32254654,12.48335 L9.32254654,12.48335 L9.32254654,17.5676268 C9.24618657,18.5358677 9.73915172,19.4637491 10.599073,19.9703629 C11.4589942,20.4769767 12.5410058,20.4769767 13.400927,19.9703629 C14.2608483,19.4637491 14.7538134,18.5358677 14.6774535,17.5676268 L14.6774535,17.5676268 L14.6774535,16.1999266 C15.6440948,15.7121424 16.4468923,14.9697083 16.9922547,14.0591785 L16.9922547,14.0591785 L16.9922547,17.5824931 C17.0951401,19.3644773 16.1667629,21.055195 14.5797494,21.9760359 C12.9927359,22.8968769 11.0072641,22.8968769 9.4202506,21.9760359 C7.83323714,21.055195 6.90485986,19.3644773 7.00774527,17.5824931 L7.00774527,17.5824931 L7.00774527,12.48335 C7.00773215,9.82896409 9.2369049,7.67485922 11.992284,7.66666667 Z M9.4202506,1.7110679 C11.0072641,0.762977365 12.9927359,0.762977365 14.5797494,1.7110679 C16.1667629,2.65915844 17.0951401,4.3999079 16.9922547,6.23462467 L16.9922547,6.23462467 L16.9922547,11.0407812 C16.9922547,13.7796821 14.7536916,16 11.992284,16 C11.4178449,15.996394 10.8485052,15.8927794 10.3101951,15.6938754 L10.3101951,15.6938754 L10.3101951,13.0918161 C10.7823946,13.4831092 11.3769886,13.6995304 11.992284,13.7040654 C13.4752621,13.7040654 14.6774535,12.5116724 14.6774535,11.0407812 L14.6774535,11.0407812 L14.6774535,6.23462467 C14.7538134,5.23773155 14.2608483,4.2823922 13.400927,3.76078667 C12.5410058,3.23918115 11.4589942,3.23918115 10.599073,3.76078667 C9.73915172,4.2823922 9.24618657,5.23773155 9.32254654,6.23462467 L9.32254654,6.23462467 L9.32254654,7.18361098 C8.35222146,7.69479695 7.54916387,8.47006894 7.00774527,9.4183207 L7.00774527,9.4183207 L7.00774527,6.23462467 C6.90485986,4.3999079 7.83323714,2.65915844 9.4202506,1.7110679 Z" id="形状结合" fill="#FFFFFF" fill-rule="nonzero" transform="translate(12.000000, 11.833333) rotate(90.000000) translate(-12.000000, -11.833333) "></path>
    </g>
</svg>