<?xml version="1.0" encoding="UTF-8"?>
<svg width="38px" height="33px" viewBox="0 0 38 33" version="1.1" xmlns="http://www.w3.org/2000/svg" xmlns:xlink="http://www.w3.org/1999/xlink">
    <title>icon_AtTabBar_storehouse-off</title>
    <g id="icon_AtTabBar_storehouse-off" stroke="none" stroke-width="1" fill="none" fill-rule="evenodd">
        <path d="M25.3288693,5 C25.6863219,5 26.0188264,5.1721762 26.2256357,5.45723197 L26.2971005,5.56930331 L29.8569776,11.9618453 C29.9257711,12.0854296 29.9700691,12.2206481 29.9879185,12.3600941 L29.9968794,12.5006749 L29.9971824,12.9554295 L29.9977935,12.964577 C30.000912,13.014285 30.0006954,13.0634687 29.997331,13.1119023 L29.9968794,26.8856258 C29.9968794,27.4568304 29.5646968,27.9270934 29.0094897,27.9872564 L28.8887464,27.9937588 L8.11125356,27.9937588 C7.54004896,27.9937588 7.06978603,27.5615761 7.00962299,27.0063691 L7.00312062,26.8856258 L7.00281764,13.1124983 L7.00220645,13.1033508 C6.99908801,13.0536428 6.99930463,13.0044591 7.00266896,12.9560255 L7.00312062,12.5006749 C7.0033789,12.3575495 7.0313554,12.2162932 7.08502244,12.0845684 L7.14717789,11.9563046 L10.7624617,5.56237746 C10.9372208,5.253555 11.2476217,5.04940262 11.5948103,5.00784805 L11.7265373,5 L25.3288693,5 Z M27.78,14.142 L9.219,14.142 L9.21938651,25.7774929 L27.7806135,25.7774929 L27.78,14.142 Z M12.8248373,17 L15.313449,20.6306941 L15.3416486,20.6306941 L15.3416486,17 L16.1735358,17 L16.1735358,22.0336226 L15.3698482,22.0336226 L12.8530369,18.3535792 L12.8248373,18.3535792 L12.8248373,22.0336226 L12,22.0336226 L12,17 L12.8248373,17 Z M20.5938178,17 L20.5938178,17.7049892 L17.9853579,17.7049892 L17.9853579,19.1008677 L20.4457701,19.1008677 L20.4457701,19.8058568 L17.9853579,19.8058568 L17.9853579,22.0336226 L17.1605206,22.0336226 L17.1605206,17 L20.5938178,17 Z M25,17 L25,17.7049892 L23.3503254,17.7049892 L23.3503254,22.0336226 L22.5254881,22.0336226 L22.5254881,17.7049892 L20.8758134,17.7049892 L20.8758134,17 L25,17 Z M24.6778412,7.21626589 L12.3720248,7.21626589 L9.709,11.925 L27.299,11.925 L24.6778412,7.21626589 Z" id="形状结合" fill="#C1F2EA" fill-rule="nonzero"></path>
    </g>
</svg>