<?xml version="1.0" encoding="UTF-8"?>
<svg width="38px" height="33px" viewBox="0 0 38 33" version="1.1" xmlns="http://www.w3.org/2000/svg" xmlns:xlink="http://www.w3.org/1999/xlink">
    <title>icon_AtTabBar_storehouse-on</title>
    <g id="icon_AtTabBar_storehouse-on" stroke="none" stroke-width="1" fill="none" fill-rule="evenodd">
        <g id="编组-14" transform="translate(0.000000, 5.000000)">
            <rect id="矩形" fill="#C7E4DF" x="0" y="4" width="38" height="18" rx="9"></rect>
            <path d="M25.3288693,7.10542736e-15 C25.6863219,7.10542736e-15 26.0188264,0.172176196 26.2256357,0.457231974 L26.2971005,0.569303307 L29.8569776,6.96184527 C29.9257711,7.08542958 29.9700691,7.22064815 29.9879185,7.36009412 L29.9968794,7.50067491 L29.9971824,7.95542947 L29.9977935,7.96457699 C30.000912,8.01428503 30.0006954,8.06346873 29.997331,8.11190235 L29.9968794,21.8856258 C29.9968794,22.4568304 29.5646968,22.9270934 29.0094897,22.9872564 L28.8887464,22.9937588 L8.11125356,22.9937588 C7.54004896,22.9937588 7.06978603,22.5615761 7.00962299,22.0063691 L7.00312062,21.8856258 L7.00281764,8.11249833 L7.00220645,8.10335082 C6.99908801,8.05364277 6.99930463,8.00445907 7.00266896,7.95602545 L7.00312062,7.50067491 C7.0033789,7.35754948 7.0313554,7.21629322 7.08502244,7.08456844 L7.14717789,6.95630461 L10.7624617,0.562377464 C10.9372208,0.253554997 11.2476217,0.0494026232 11.5948103,0.0078480521 L11.7265373,7.10542736e-15 L25.3288693,7.10542736e-15 Z M27.78,9.142 L9.219,9.142 L9.21938651,20.7774929 L27.7806135,20.7774929 L27.78,9.142 Z M12.8248373,12 L15.313449,15.6306941 L15.3416486,15.6306941 L15.3416486,12 L16.1735358,12 L16.1735358,17.0336226 L15.3698482,17.0336226 L12.8530369,13.3535792 L12.8248373,13.3535792 L12.8248373,17.0336226 L12,17.0336226 L12,12 L12.8248373,12 Z M20.5938178,12 L20.5938178,12.7049892 L17.9853579,12.7049892 L17.9853579,14.1008677 L20.4457701,14.1008677 L20.4457701,14.8058568 L17.9853579,14.8058568 L17.9853579,17.0336226 L17.1605206,17.0336226 L17.1605206,12 L20.5938178,12 Z M25,12 L25,12.7049892 L23.3503254,12.7049892 L23.3503254,17.0336226 L22.5254881,17.0336226 L22.5254881,12.7049892 L20.8758134,12.7049892 L20.8758134,12 L25,12 Z M24.6778412,2.21626589 L12.3720248,2.21626589 L9.709,6.925 L27.299,6.925 L24.6778412,2.21626589 Z" id="形状结合" fill="#90C7BE" fill-rule="nonzero"></path>
        </g>
    </g>
</svg>