<?xml version="1.0" encoding="UTF-8"?>
<svg width="36px" height="36px" viewBox="0 0 36 36" version="1.1" xmlns="http://www.w3.org/2000/svg" xmlns:xlink="http://www.w3.org/1999/xlink">
    <title>icon_back</title>
    <g id="icon_back" stroke="none" stroke-width="1" fill="none" fill-rule="evenodd">
        <path d="M30.8918538,17.6344626 C30.8918538,18.4974075 30.1922988,19.1969626 29.3293539,19.1969626 L10.3574788,19.1969626 L18.7152913,27.5563376 C19.3074353,28.1694297 19.2989667,29.14397 18.6962577,29.746679 C18.0935487,30.349388 17.1190084,30.3578566 16.5059163,29.7657126 L5.45747884,18.7172751 C4.84750705,18.1071191 4.84750705,17.1180561 5.45747884,16.5079001 L16.5043539,5.45790015 C17.1148874,4.84736662 18.1047578,4.84736662 18.7152913,5.45790015 C19.3258249,6.06843368 19.3258249,7.05830411 18.7152913,7.66883763 L10.3090413,16.0719626 L29.3293539,16.0719626 C30.1922988,16.0719626 30.8918538,16.7715177 30.8918538,17.6344626 L30.8918538,17.6344626 Z" id="路径" fill="#FFFFFF" fill-rule="nonzero"></path>
    </g>
</svg>