<?xml version="1.0" encoding="UTF-8"?>
<svg width="33px" height="33px" viewBox="0 0 33 33" version="1.1" xmlns="http://www.w3.org/2000/svg" xmlns:xlink="http://www.w3.org/1999/xlink">
    <title>icon_MaxSpeed</title>
    <defs>
        <filter id="filter-1">
            <feColorMatrix in="SourceGraphic" type="matrix" values="0 0 0 0 0.780392 0 0 0 0 0.894118 0 0 0 0 0.874510 0 0 0 1.000000 0"></feColorMatrix>
        </filter>
    </defs>
    <g id="icon_MaxSpeed" stroke="none" stroke-width="1" fill="none" fill-rule="evenodd">
        <g filter="url(#filter-1)" id="reliangbiao">
            <g transform="translate(1.000000, 1.000000)">
                <path d="M15.75,4 C18.7336855,4 21.595167,5.18526445 23.7049513,7.29504871 C25.8147355,9.40483297 27,12.2663145 27,15.25 C27,18.3566017 25.7408009,21.1691017 23.7049513,23.2049513 C21.6691017,25.2408009 18.8566017,26.5 15.75,26.5 C12.6433983,26.5 9.83089828,25.2408009 7.79504871,23.2049513 C5.75919914,21.1691017 4.5,18.3566017 4.5,15.25 C4.5,12.1433983 5.75919914,9.33089828 7.79504871,7.29504871 C9.83089828,5.25919914 12.6433983,4 15.75,4 Z" id="形状" stroke="#000000" fill-rule="nonzero"></path>
                <path d="M15.5035679,3.62577968e-07 C9.23388678,-0.00135093859 3.58087004,3.7745521 1.18094252,9.56672364 C-1.21898501,15.3588952 0.106897401,22.0264343 4.54023154,26.4597684 C8.97356568,30.8931026 15.6411048,32.218985 21.4332763,29.8190575 C27.2254479,27.41913 31.0013509,21.7661133 31,15.4964321 C30.9907899,6.94180697 24.0581931,0.00921016523 15.5035679,3.62577968e-07 Z M15.5035679,29.0746078 C8.00454853,29.0746078 1.9253922,22.9954515 1.9253922,15.4964321 C1.9253922,7.99741275 8.00454853,1.91825642 15.5035679,1.91825642 C23.0025873,1.91825642 29.0817436,7.99741275 29.0817436,15.4964321 C29.0743748,22.9923971 22.9995329,29.067239 15.5035679,29.0746078 Z" id="形状" fill="#000000" fill-rule="nonzero"></path>
                <g id="shandian" transform="translate(9.687500, 7.750000)" fill="#000000" fill-rule="nonzero">
                    <path d="M3.69136261,9.28560402 L0.580283826,9.28560402 C0.174104477,9.28560402 -0.106085854,8.87903819 0.0384537128,8.49971845 L3.12982256,0.38540663 C3.21544367,0.160654564 3.43095068,0.0120771753 3.67145945,0.0120771753 L8.8880236,0.0120771753 C9.29961353,0.0120771753 9.58019033,0.42907768 9.42482962,0.810329752 L7.62484832,5.22844809 L11.0134122,5.22844809 C11.5117645,5.22844809 11.7776554,5.81588161 11.4489632,6.19037047 L3.14103018,15.6569388 C2.73716964,16.1172239 1.98838514,15.7183874 2.14509849,15.1265095 L3.69136261,9.28560402 Z" id="路径"></path>
                </g>
            </g>
        </g>
    </g>
</svg>