<?xml version="1.0" encoding="UTF-8"?>
<svg width="15px" height="15px" viewBox="0 0 15 15" version="1.1" xmlns="http://www.w3.org/2000/svg" xmlns:xlink="http://www.w3.org/1999/xlink">
    <title>icon_home_Luck</title>
    <g id="icon_home_Luck" stroke="none" stroke-width="1" fill="none" fill-rule="evenodd">
        <path d="M7.4859757,1 C8.5418659,1 9.53692291,1.25202317 10.4175556,1.69813316 C10.5826742,1.77055361 10.6970986,1.93422383 10.6970986,2.12396542 C10.6970986,2.38033382 10.4885277,2.58890472 10.2307108,2.58890472 C10.1481515,2.58890472 10.0699374,2.56717859 10.0033106,2.52951995 L10.0033106,2.52951995 C9.24579269,2.15148519 8.39123136,1.93422383 7.4859757,1.93422383 C4.42114216,1.93422383 1.93567224,4.41679694 1.93567224,7.48307889 C1.93567224,10.5493608 4.42259057,13.0333823 7.48742411,13.0333823 C10.5522577,13.0333823 13.0377276,10.5479124 13.0377276,7.48307889 C13.0377276,6.5720296 12.8175694,5.71167462 12.4279474,4.95270828 L12.4279474,4.95270828 C12.3873919,4.88173624 12.362769,4.79917693 12.362769,4.71227238 C12.362769,4.45590398 12.5713399,4.24733308 12.8291567,4.24733308 C13.0116562,4.24733308 13.1695328,4.35306694 13.2477469,4.50514989 C13.7097894,5.39736986 13.970503,6.40980778 13.970503,7.48307889 C13.970503,11.0649945 11.0678913,13.9676062 7.4859757,13.9676062 C3.90406014,13.9676062 1,11.063546 1,7.48307889 C1,3.90261173 3.90406014,1 7.4859757,1 Z M9.58037518,8.53607226 C9.83819199,8.53752067 10.0467629,8.74464316 10.0467629,9.00101157 C10.0467629,9.08212247 10.0250368,9.15888815 9.99172335,9.22696338 C9.53837132,10.1495999 8.5896634,10.7854515 7.49321775,10.7854515 C6.38663324,10.7854515 5.43213168,10.1394611 4.98457328,9.20523724 C4.95415669,9.14295565 4.93677578,9.07343202 4.93677578,9.00101157 C4.93677578,8.74464316 5.14534669,8.53607226 5.4031635,8.53607226 C5.58711145,8.53607226 5.74498803,8.64180612 5.82175371,8.79533748 L5.82175371,8.79533748 C6.11867757,9.42684383 6.74728709,9.86426336 7.4859757,9.86426336 C8.22466432,9.86426336 8.86341271,9.42829223 9.15743974,8.7982343 C9.2313086,8.64180612 9.39353042,8.53607226 9.58037518,8.53607226 Z M9.54561337,4.98457328 C9.9063837,4.98457328 10.1988458,5.27703543 10.1988458,5.63780576 C10.1988458,5.9985761 9.9063837,6.29103824 9.54561337,6.29103824 C9.18484303,6.29103824 8.89238089,5.9985761 8.89238089,5.63780576 C8.89238089,5.27703543 9.18484303,4.98457328 9.54561337,4.98457328 Z M5.40171509,4.98457328 C5.76248542,4.98457328 6.05494757,5.27703543 6.05494757,5.63780576 C6.05494757,5.87118325 5.93044217,6.08683295 5.72833133,6.2035217 C5.5262205,6.32021045 5.27720968,6.32021045 5.07509884,6.2035217 C4.87298801,6.08683295 4.74848261,5.87118325 4.74848261,5.63780576 C4.74848261,5.27703543 5.04094475,4.98457328 5.40171509,4.98457328 Z M11.7138817,2.79602722 C11.9714605,2.79602722 12.1802694,3.00418763 12.1802694,3.26096652 C12.1802694,3.51774541 11.9714605,3.72590582 11.7138817,3.72590582 C11.4563029,3.72590582 11.247494,3.51774541 11.247494,3.26096652 C11.247494,3.00418763 11.4563029,2.79602722 11.7138817,2.79602722 Z" id="形状结合" fill="#FE607F" fill-rule="nonzero"></path>
    </g>
</svg>