<?xml version="1.0" encoding="UTF-8"?>
<svg width="15px" height="15px" viewBox="0 0 15 15" version="1.1" xmlns="http://www.w3.org/2000/svg" xmlns:xlink="http://www.w3.org/1999/xlink">
    <title>icon_home_EarnFUN</title>
    <g id="icon_home_EarnFUN" stroke="none" stroke-width="1" fill="none" fill-rule="evenodd">
        <path d="M4.3,1 C4.46568543,1 4.6,1.13857853 4.6,1.3095238 L4.6,8.11904762 C4.6,8.20113844 4.56839295,8.27986703 4.51213204,8.33791401 C4.45587112,8.39596098 4.37956495,8.42857143 4.3,8.42857143 L3.4,8.42857143 L3.4,10.8484286 C3.4,11.8924524 4.11700001,12.7235238 4.9888,12.7606667 L5.05,12.7619048 C5.9287,12.7619048 6.6658,11.9546667 6.6988,10.9208571 L6.70000001,10.8484286 L6.70000001,4.03085714 C6.70000001,2.37923809 7.81510001,1 9.25,1 C10.6597,1 11.761,2.33126191 11.7991,3.94419048 L11.8,4.03085714 L11.8,7.1904762 L12.7,7.1904762 C12.7795649,7.19047619 12.8558711,7.22308664 12.912132,7.28113361 C12.968393,7.33918059 13,7.41790918 13,7.5 L13,13.6904762 C13,13.772567 12.968393,13.8512956 12.912132,13.9093426 C12.8558711,13.9673896 12.7795649,14 12.7,14 L9.7,14 C9.62043506,14 9.54412889,13.9673895 9.48786797,13.9093426 C9.43160706,13.8512956 9.40000001,13.772567 9.40000001,13.6904762 L9.40000001,7.5 C9.40000001,7.32905472 9.53431458,7.1904762 9.7,7.1904762 L10.6,7.1904762 L10.6,4.03085714 C10.6,3.01809523 9.9691,2.23809523 9.25,2.23809523 C8.5492,2.23809523 7.9324,2.97878571 7.9012,3.9534762 L7.9,4.03085714 L7.9,10.8484286 C7.9,12.5774286 6.63610001,14 5.05,14 C3.4906,14 2.2429,12.6254048 2.2012,10.9360238 L2.20000001,10.8484286 L2.20000001,8.42857143 L1.30000001,8.42857143 C1.22043506,8.42857143 1.14412888,8.39596098 1.08786797,8.33791401 C1.03160705,8.27986704 1,8.20113844 1,8.11904762 L1,1.3095238 C1,1.22743299 1.03160705,1.14870439 1.08786797,1.09065742 C1.14412888,1.03261044 1.22043506,1 1.30000001,1 L4.3,1 Z M11.8,8.42857143 L10.6,8.42857143 L10.6,12.7619048 L11.8,12.7619048 L11.8,8.42857143 Z M3.4,2.23809523 L2.20000001,2.23809523 L2.20000001,7.1904762 L3.4,7.1904762 L3.4,2.23809523 Z" id="形状" fill="#FE607F" fill-rule="nonzero"></path>
    </g>
</svg>