<?xml version="1.0" encoding="UTF-8"?>
<svg width="15px" height="15px" viewBox="0 0 15 15" version="1.1" xmlns="http://www.w3.org/2000/svg" xmlns:xlink="http://www.w3.org/1999/xlink">
    <title>icon_home_Resilience</title>
    <g id="icon_home_Resilience" stroke="none" stroke-width="1" fill="none" fill-rule="evenodd">
        <path d="M5.34155763,2.16785031 C5.33862922,2.1420803 5.33862922,2.11631027 5.33862921,2.09054026 L5.33862921,1.85626738 C5.33862921,1.38303616 5.72166537,1 6.19489658,1 L8.76604143,1 C9.23985832,1 9.6223088,1.38303616 9.62230879,1.85626738 L9.62230879,2.09054026 C9.62230879,2.11631027 9.62113743,2.1420803 9.61996607,2.16785031 L10.246646,2.16785031 C11.1934232,2.16785031 11.9609379,2.93536488 11.9609379,3.88214209 L11.9609379,12.1402611 C11.9610932,12.595021 11.7805494,13.0312083 11.4590405,13.352827 C11.1375316,13.6744458 10.701406,13.8551385 10.246646,13.8551385 L4.714292,13.8551385 C4.25963355,13.8551385 3.82359672,13.6745262 3.50210464,13.3530341 C3.18061257,13.031542 3.0000001,12.5955052 3.0000001,12.1408467 L3.0000001,3.88272778 C2.99984483,3.42796786 3.18038861,2.99178055 3.50189752,2.6701618 C3.82340644,2.34854304 4.25953205,2.16785028 4.714292,2.16785031 L5.34097194,2.16785031 L5.34155763,2.16785031 Z M4.71487767,3.23789168 C4.35995426,3.23789168 4.07179862,3.52663301 4.07179862,3.88097073 L4.07179862,12.1390897 C4.07179862,12.4940131 4.35995426,12.7821687 4.714292,12.7821687 L10.246646,12.7821687 C10.6009837,12.7821687 10.8897251,12.4940131 10.8897251,12.1390897 L10.8897251,3.88097073 C10.8897251,3.52663301 10.6009837,3.23789168 10.246646,3.23789168 L4.714292,3.23789168 L4.71487767,3.23789168 Z M7.81782194,5.47344061 C7.94761117,5.32816101 8.1590346,5.2886524 8.33252975,5.37725738 C8.50602489,5.46586235 8.59796926,5.66030265 8.5563672,5.85061996 L8.13057624,7.763458 L8.94526018,7.763458 C9.11651281,7.76341204 9.27136489,7.86528515 9.33911653,8.02256573 C9.40686816,8.17984632 9.37452081,8.36235918 9.2568431,8.48677551 L6.95804049,10.9179423 C6.82447008,11.0578309 6.61377331,11.0909602 6.44371827,10.9988128 C6.27366323,10.9066654 6.1863669,10.7120632 6.2306232,10.5237782 L6.68394122,8.62265379 L5.99283623,8.62265379 C5.82435861,8.62231291 5.67165396,8.52345702 5.60237492,8.36988216 C5.53309587,8.2163073 5.56005034,8.03640551 5.6712967,7.90987856 L7.81782194,5.47344061 L7.81782194,5.47344061 Z" id="形状" fill="#FE607F" fill-rule="nonzero"></path>
    </g>
</svg>