<?xml version="1.0" encoding="UTF-8"?>
<svg width="34px" height="33px" viewBox="0 0 34 33" version="1.1" xmlns="http://www.w3.org/2000/svg" xmlns:xlink="http://www.w3.org/1999/xlink">
    <title>icon_SportTime</title>
    <g id="icon_SportTime" stroke="none" stroke-width="1" fill="none" fill-rule="evenodd" transform="translate(0.000000, 0.000000)">
        <g id="jishiqi" transform="translate(2.000000, 1.000000)" fill-rule="nonzero">
            <path d="M20.2931437,2.77576959 L9.11660448,2.77576959 C8.78972842,2.77576959 8.47945186,2.9197786 8.2683069,3.1693097 L2.07048741,10.5022738 C1.90096095,10.7027535 1.8081272,10.9568436 1.8081272,11.2193913 L1.8081272,25.1034865 C1.8081272,27.9265721 4.09669045,30.2151353 6.91977612,30.2151353 L22.4864739,30.2151353 C25.3095596,30.2151353 27.5981228,27.9265721 27.5981228,25.1034865 L27.5981228,11.2193913 C27.5981228,10.9568436 27.5052891,10.7027535 27.3357626,10.5022738 L21.1414412,3.1693097 C20.9302963,2.9197786 20.6200197,2.77576959 20.2931437,2.77576959 L20.2931437,2.77576959 Z" id="路径" fill="#C7E4DF"></path>
            <path d="M24.2136777,24.4449627 L21.4580224,26.3759328 C21.269274,26.507397 21.0097788,26.4616727 20.8773321,26.2736124 L20.1182369,25.1865672 C20.0549043,25.0961144 20.030104,24.984205 20.0492935,24.8754645 C20.068483,24.7667241 20.1300898,24.6700629 20.2205574,24.6067514 L22.9762127,22.6757813 C23.1648489,22.5438095 23.4247352,22.5896027 23.556903,22.7781017 L24.3159981,23.8625233 C24.3803993,23.9530883 24.4058279,24.0656814 24.3865998,24.1751336 C24.3673717,24.2845859 24.3050902,24.3817704 24.2136777,24.4449627 L24.2136777,24.4449627 Z" id="路径" fill="#74ACA3"></path>
            <path d="M13.7796175,0.520347481 L15.8994869,0.520347481 C16.4249818,0.520347481 16.8509795,0.946345201 16.8509795,1.47184002 L16.8509795,2.67257463 L12.828125,2.67257463 L12.828125,1.47184002 C12.828125,0.946345201 13.2541227,0.520347481 13.7796175,0.520347481 Z" id="路径" fill="#84C5BA"></path>
            <path d="M25.6732743,3.28824627 L28.0896105,6.14797108 C28.5365994,6.67403316 28.472795,7.46278089 27.9470616,7.91015625 L26.7664412,8.90450093 C26.5906041,9.05317416 26.3275585,9.03125369 26.1787547,8.85552705 L22.6867421,4.72248134 C22.5380688,4.54664422 22.5599893,4.28359857 22.735716,4.13479478 L23.9128382,3.13957556 C24.4404227,2.69575384 25.2275935,2.76223125 25.6732743,3.28824627 Z M3.91750233,3.28824627 L1.50029151,6.14797108 C1.05507578,6.67558465 1.12120709,7.46407334 1.64808769,7.91015625 L2.82520989,8.90450093 C3.00104701,9.05317416 3.26409266,9.03125369 3.41289646,8.85552705 L6.90578358,4.72248134 C7.05424476,4.54641224 7.03193085,4.28334299 6.85593517,4.13479478 L5.67881297,3.14045009 C5.42566093,2.92645843 5.09786267,2.82180831 4.76754448,2.84952617 C4.4372263,2.87724403 4.13145215,3.03505887 3.91750233,3.28824627 L3.91750233,3.28824627 Z" id="形状" fill="#C7E4DF"></path>
            <path d="M21.5533465,8.20399953 C25.0852999,11.8117682 25.1299228,17.5673196 21.6543328,21.2294179 C18.1787429,24.8915163 12.4287153,25.1475351 8.64141533,21.8088155 C4.85411538,18.4700959 4.38704619,12.7333539 7.58438861,8.82596459 C10.781731,4.91857533 16.4974437,4.24108626 20.5196479,7.29273554" id="路径" fill="#FFFFFF"></path>
            <path d="M9.45791032,20.0785074 C12.3827442,23.0033412 17.1248368,23.0033412 20.0496707,20.0785074 C22.9745046,17.1536735 22.9745046,12.4115809 20.0496707,9.48674698 C17.1248368,6.56191311 12.3827442,6.56191311 9.45791032,9.48674698 C6.53307645,12.4115809 6.53307645,17.1536735 9.45791032,20.0785074 L9.45791032,20.0785074 Z" id="路径" fill="#A4D5CD"></path>
            <path d="M20.8799557,19.0788246 L8.6119986,19.0788246 C8.6119986,19.0788246 7.2057486,17.083139 7.21271885,15.755597 C7.21888123,14.6888941 7.34383566,13.6261948 7.58529618,12.5871618 L21.9066581,12.5871618 C22.1121897,13.5948014 22.2214152,14.6197057 22.2328591,15.6480294 C22.2486007,16.991313 21.3880597,18.2462687 20.8799557,19.0788246 L20.8799557,19.0788246 Z" id="路径" fill="#74ACA3"></path>
            <path d="M20.536264,17.514284 L17.6275653,17.514284 L17.6275653,14.2548974 L20.5353895,14.2548974 L20.536264,17.514284 Z M18.6778801,16.4648438 L19.4868237,16.4648438 L19.4868237,15.3043377 L18.6770056,15.3043377 L18.6778801,16.4648438 Z M11.916861,17.514284 L9.00903685,17.514284 L9.00903685,14.2548974 L11.916861,14.2548974 L11.916861,17.514284 Z M10.0584771,16.4648438 L10.8674207,16.4648438 L10.8674207,15.3043377 L10.0584771,15.3043377 L10.0584771,16.4648438 Z M16.9865322,17.514284 L14.078708,17.514284 L14.078708,14.2548974 L16.9865322,14.2548974 L16.9865322,17.514284 Z M15.1281483,16.4648438 L15.9370919,16.4648438 L15.9370919,15.3043377 L15.1281483,15.3043377 L15.1281483,16.4648438 Z M12.4879314,14.5364972 L13.5067631,14.5364972 L13.5067631,15.5553288 L12.4879314,15.5553288 L12.4879314,14.5364972 Z M12.4879314,16.2392141 L13.5067631,16.2392141 L13.5067631,17.2580457 L12.4879314,17.2580457 L12.4879314,16.2392141 Z" id="形状" fill="#FFFFFF"></path>
            <path d="M12.1267491,9.76766558 L15.1710005,9.76766558 L15.1710005,11.1313019 L12.1267491,11.1313019 L12.1267491,9.76766558 Z M16.2694146,9.76766558 L17.3652052,9.76766558 L17.3652052,11.1313019 L16.2694146,11.1313019 L16.2694146,9.76766558 Z" id="形状" fill="#FFFFFF"></path>
        </g>
    </g>
</svg>