<?xml version="1.0" encoding="UTF-8"?>
<svg width="36px" height="36px" viewBox="0 0 36 36" version="1.1" xmlns="http://www.w3.org/2000/svg" xmlns:xlink="http://www.w3.org/1999/xlink">
    <title>icon_wallet</title>
    <g id="icon_wallet" stroke="none" stroke-width="1" fill="none" fill-rule="evenodd">
        <g id="编组-11">
            <circle id="椭圆形" fill="#FFFFFF" cx="18" cy="18" r="18"></circle>
            <path d="M26.1818182,20.9090909 L26.6363636,20.9090909 L26.6363636,24.5454546 C26.6363636,25.5496086 25.8223359,26.3636364 24.8181818,26.3636364 L9.81818182,26.3636364 C8.81402773,26.3636364 8,25.5496086 8,24.5454546 L8,11.8181818 C8,10.8140277 8.81402773,10 9.81818182,10 L24.8181818,10 C25.8223359,10 26.6363636,10.8140277 26.6363636,11.8181818 L26.6363636,14.5454546 L26.1818182,14.5454546 C27.1859723,14.5454546 28,15.3594823 28,16.3636364 L28,19.0909091 C28,20.0950632 27.1859723,20.9090909 26.1818182,20.9090909 Z M24.8181818,12.7272727 C24.8181818,12.2251957 24.411168,11.8181818 23.9090909,11.8181818 L10.7272727,11.8181818 C10.2251957,11.8181818 9.81818182,12.2251957 9.81818182,12.7272727 L9.81818182,23.6363636 C9.81818182,24.1384407 10.2251957,24.5454546 10.7272727,24.5454546 L23.9090909,24.5454546 C24.411168,24.5454546 24.8181818,24.1384407 24.8181818,23.6363636 L24.8181818,20.9090909 L20.7272727,20.9090909 C19.7231186,20.9090909 18.9090909,20.0950632 18.9090909,19.0909091 L18.9090909,16.3636364 C18.9090909,15.3594823 19.7231186,14.5454546 20.7272727,14.5454546 L24.8181818,14.5454546 L24.8181818,12.7272727 L24.8181818,12.7272727 Z M26.1818182,17.2727273 C26.1818182,16.7706502 25.7748043,16.3636364 25.2727273,16.3636364 L21.6363636,16.3636364 C21.1342866,16.3636364 20.7272727,16.7706502 20.7272727,17.2727273 L20.7272727,18.1818182 C20.7272727,18.6838952 21.1342866,19.0909091 21.6363636,19.0909091 L25.2727273,19.0909091 C25.7748043,19.0909091 26.1818182,18.6838952 26.1818182,18.1818182 L26.1818182,17.2727273 L26.1818182,17.2727273 Z M16.6363636,13.6363636 L11.1818182,13.6363636 C10.9307797,13.6363636 10.7272727,13.4328567 10.7272727,13.1818182 C10.7272727,12.9307797 10.9307797,12.7272727 11.1818182,12.7272727 L16.6363636,12.7272727 C16.8874022,12.7272727 17.0909091,12.9307797 17.0909091,13.1818182 C17.0909091,13.4328567 16.8874022,13.6363636 16.6363636,13.6363636 Z" id="形状" fill="#A4D5CD" fill-rule="nonzero"></path>
        </g>
    </g>
</svg>