<?xml version="1.0" encoding="UTF-8"?>
<svg width="28px" height="28px" viewBox="0 0 28 28" version="1.1" xmlns="http://www.w3.org/2000/svg" xmlns:xlink="http://www.w3.org/1999/xlink">
    <title>icon_address</title>
    <g id="icon_address" stroke="none" stroke-width="1" fill="none" fill-rule="evenodd">
        <path d="M14,0 C21.7319865,0 28,6.2680135 28,14 C28,21.7319865 21.7319865,28 14,28 C6.2680135,28 0,21.7319865 0,14 C0,6.2680135 6.2680135,0 14,0 Z M15.4423152,11.7244408 L14.199782,12.9676759 C14.3452346,13.0535786 14.4824099,13.1567672 14.6070668,13.2807222 L14.6703897,13.3443961 C15.4665621,14.139574 15.4665621,15.4347837 14.6703897,16.2312778 L11.2724496,19.6277847 C10.4763065,20.4229919 9.18147708,20.4229919 8.38533393,19.6277847 L8.32160153,19.5647835 C7.52545838,18.7683479 7.52545838,17.4724363 8.32160153,16.6779896 L9.85852048,15.1418311 C9.59221323,14.4824245 9.46512868,13.7794377 9.47720828,13.0799022 L7.09983478,15.4542047 C5.6331999,16.9218925 5.6331999,19.3210561 7.09983478,20.7866088 L7.16318695,20.8503119 C8.62944161,22.3151919 11.0283127,22.3151919 12.4945381,20.8503119 L15.8911328,17.4523426 C17.3559835,15.9860879 17.3559835,13.5861931 15.8911328,12.1213424 L15.8288043,12.0582827 C15.7068675,11.9364044 15.5766826,11.8262254 15.4423152,11.7244408 Z M15.454424,7.09967389 L12.0575076,10.4976432 C10.591253,11.9634007 10.591253,14.3626228 12.0575076,15.8295209 L12.1201871,15.8911474 C12.2424456,16.0131135 12.3726598,16.1231462 12.5056233,16.226364 L13.7488292,14.9817542 C13.6034351,14.8972554 13.466289,14.7933649 13.3422756,14.6693806 L13.2795961,14.6077541 C12.4834237,13.81126 12.4834237,12.5160796 13.2795961,11.7195563 L16.6786184,8.32284461 C17.4727142,7.52667222 18.7675436,7.52667222 19.5640377,8.32284461 L19.6274484,8.38517309 C20.4236208,9.18169647 20.4236208,10.4772278 19.6274484,11.2723473 L18.0915239,12.8090907 C18.3574802,13.4684096 18.4842723,14.1707529 18.4717832,14.8702884 L20.8484839,12.4946113 C22.3157915,11.0281519 22.3157915,8.62969022 20.8495369,7.16334781 L20.7857752,7.09967389 C19.3195206,5.63339 16.9206494,5.63339 15.454424,7.09967389 Z" id="形状结合" fill="#A4D5CD"></path>
    </g>
</svg>