<?xml version="1.0" encoding="UTF-8"?>
<svg width="12px" height="18px" viewBox="0 0 12 18" version="1.1" xmlns="http://www.w3.org/2000/svg" xmlns:xlink="http://www.w3.org/1999/xlink">
    <title>icon_lv</title>
    <g id="icon_lv" stroke="none" stroke-width="1" fill="none" fill-rule="evenodd">
        <g id="编组" fill="#FFFFFF">
            <path d="M11.9881761,11.2777992 C11.9881761,12.4920232 11.9863228,13.7062471 11.9909598,14.9204247 C11.991373,15.0288417 11.9576896,15.0753591 11.8583537,15.1076062 C10.8122224,15.4478687 9.76706409,15.7912355 8.72213745,16.1350193 C7.84516448,16.423529 6.96865483,16.7134286 6.09237683,17.0040232 C6.02718764,17.0256139 5.96649266,17.0271892 5.90111815,17.0055521 C4.25758147,16.4618456 2.61385946,15.918834 0.969859459,15.3764247 L0.135743629,15.1067259 L0.135743629,15.1067259 C0.103589189,15.0963012 0.0736586873,15.0790656 0.0440988417,15.0656757 C0.0462764479,15.0241622 0.0752339768,15.0214286 0.099419305,15.0134131 C1.10060849,14.6833436 2.10189035,14.3538301 3.10270888,14.022973 C3.42031506,13.9179382 3.73662394,13.8092896 4.0534888,13.7022625 C4.39319537,13.5931969 4.73350425,13.4861236 5.07237683,13.374834 C6.41512587,12.9337529 7.75750425,12.4919305 9.09965097,12.0492278 C9.52998301,11.9073127 9.95915676,11.7617838 10.3888402,11.6179228 C10.8636046,11.4628031 11.3388324,11.3089807 11.8130409,11.1518687 C11.9890564,11.0935367 11.9881761,11.0900618 11.9881761,11.2777992 Z M0.106971429,11.1296108 C0.694183784,11.3253637 1.2826471,11.5173174 1.87055444,11.7111243 C3.10145792,12.1169467 4.33226873,12.5232324 5.56321853,12.9288695 C5.59625328,12.9397112 5.63012201,12.9469853 5.67330347,12.9905375 C5.40666255,13.078522 5.15609884,13.1612247 4.90558147,13.2439274 C3.70738842,13.6395568 2.50933436,14.0353251 1.31114131,14.4307228 C0.909349807,14.5632788 0.506816988,14.6937498 0.105674131,14.8281591 C0.0248247104,14.8552633 -1.01121998e-05,14.8394178 0.000176061776,14.7510162 C0.00244633205,13.5676031 0.00258532819,12.38419 -1.01121998e-05,11.2008232 C-0.000194594595,11.1053792 0.0300602317,11.1039892 0.106971429,11.1296108 Z M11.9889869,6.5458749 C11.9872726,7.7987861 11.9874116,9.05174363 11.9892189,10.3046548 C11.9892189,10.3732263 11.9692958,10.406122 11.9012803,10.4282224 C11.2538363,10.6386162 10.6069946,10.850956 9.9613112,11.0667243 C9.75244633,11.1365004 9.54129575,11.1996664 9.33289764,11.2709114 L9.02336525,11.3855351 C9.00112587,11.3895197 8.97805251,11.3908633 8.9567861,11.3978131 C8.00063166,11.7121297 7.04447722,12.0264927 6.08887876,12.3424772 C6.03193668,12.361288 5.97990579,12.3700448 5.92111042,12.3504927 C5.34524942,12.158956 4.76929575,11.9678826 4.19255444,11.7790332 C3.79141158,11.6476819 3.38915676,11.5199907 2.98736525,11.3906317 L2.97842317,11.3845158 L2.96767413,11.3859058 C2.9508556,11.3770564 2.93487104,11.3656587 2.9170332,11.3597745 C2.07754286,11.0830795 1.23754286,10.8080525 0.398701158,10.5293653 C0.277867181,10.4892417 0.149805405,10.4638981 0.0241528958,10.3885158 C0.1560139,10.3219367 0.283519691,10.2956201 0.404446332,10.2517436 C0.670577606,10.155095 0.947782239,10.0904618 1.20701004,9.97379768 C1.22197529,9.97083243 1.23694054,9.96786718 1.25190579,9.96490193 C1.59902548,9.85314903 1.94679382,9.74334208 2.29307954,9.62922625 L6.24928031,8.32377452 L6.24928031,8.32377452 C7.45525714,7.92656988 8.66192896,7.53145019 9.86813745,7.13498687 C10.5406934,6.91389035 11.2134347,6.69344247 11.8846934,6.46854672 C11.9734656,6.43880154 11.9892189,6.46122625 11.9889869,6.5458749 Z M0.0966625483,6.46581776 C0.764446332,6.68779459 1.43315676,6.90708417 2.10163552,7.12720772 C3.23023784,7.4988834 4.35888649,7.87042008 5.48739614,8.24260541 C5.54419923,8.26132355 5.6050332,8.27248958 5.67726486,8.32591042 C5.50402934,8.38447413 5.3507166,8.43752432 5.19656988,8.48825792 L2.80833822,9.27446641 L2.80833822,9.27446641 C2.78294826,9.28289884 2.75876293,9.29522317 2.73402162,9.30574054 C2.33218378,9.43597992 1.92997529,9.565061 1.5286471,9.69682934 C1.25130347,9.78791815 0.975164479,9.88280618 0.698469498,9.97602625 C0.497388417,10.0401035 0.295473359,10.1019568 0.0955505792,10.1695089 C0.0248478764,10.1934162 6.02316602e-05,10.1828062 0.00015263705,10.1033004 C0.00195984556,8.91270579 0.00214517375,7.72206486 0.000755212355,6.53142394 C0.000616216216,6.45140849 0.0260988417,6.44237375 0.0966625483,6.46581776 Z M5.98879691,9.26640928e-06 C6.06538378,0.129183012 6.08961544,0.257152124 6.12885869,0.377430116 C6.36978533,1.11633359 6.60746873,1.8563027 6.84167722,2.59738378 C6.86970811,2.68587799 6.91645714,2.70589344 7.00101313,2.70543012 C7.85273514,2.70079691 8.70450347,2.69922162 9.55627181,2.69792432 C9.6048278,2.69787799 9.65639537,2.68453436 9.71305946,2.72215598 C9.56067336,2.83316757 9.41319846,2.94130656 9.26502857,3.04856525 C8.68175444,3.47074286 8.09903629,3.89366178 7.51386255,4.31315212 C7.44649575,4.36147645 7.42856525,4.4028973 7.45576216,4.48499768 C7.73185483,5.31763089 8.00354595,6.15174672 8.27593205,6.98563089 C8.28399382,7.01041853 8.28658842,7.03692046 8.29455753,7.07695135 C8.17571583,7.02825637 8.09245714,6.94958456 8.00215598,6.88397838 C7.37305946,6.42677375 6.74368494,5.9698471 6.1200556,5.50522934 C6.01844942,5.42956911 5.95557683,5.44346873 5.86323707,5.5116695 C5.18817915,6.01015598 4.50955367,6.50387027 3.83185483,6.99874286 C3.79511351,7.02561544 3.75596293,7.04919846 3.7116695,7.07843398 C3.68915212,7.03372355 3.7103722,7.0008278 3.72167722,6.96631042 C3.98915212,6.14697452 4.25421776,5.3268973 4.52609421,4.50899768 C4.5588973,4.41026409 4.54291274,4.35999382 4.45919073,4.30008649 C3.75179305,3.79381622 3.04777761,3.28282008 2.34292819,2.77298224 C2.32180077,2.75769266 2.30271197,2.73957683 2.28051892,2.72104402 C2.33097452,2.68332973 2.38277375,2.69797066 2.43091274,2.69801699 C3.27498996,2.69922162 4.11911351,2.69973127 4.96309807,2.70640309 C5.07397066,2.70732973 5.12326795,2.6759166 5.157739,2.56638764 C5.41339923,1.75529884 5.67684324,0.946619305 5.93815598,0.13729112 C5.95094363,0.0978162162 5.96683552,0.0594069498 5.98879691,9.26640928e-06 Z" id="形状结合"></path>
        </g>
    </g>
</svg>