<?xml version="1.0" encoding="UTF-8"?>
<svg width="24px" height="24px" viewBox="0 0 24 24" version="1.1" xmlns="http://www.w3.org/2000/svg" xmlns:xlink="http://www.w3.org/1999/xlink">
    <title>icon_sell-off</title>
    <g id="icon_sell-off" stroke="none" stroke-width="1" fill="none" fill-rule="evenodd">
        <path d="M8.02805496,16.8166747 C7.60820418,16.8164958 7.24657549,16.5206178 7.16326138,16.1091163 L3.97855909,3.46823435 L1.41728055,2.63378442 C1.00289285,2.37631559 0.875684971,1.83166825 1.1331538,1.41728055 C1.39062263,1.00289285 1.93526997,0.875684971 2.34965767,1.1331538 L5.23644066,2.17035437 C5.44308489,2.29837791 5.587788,2.50595202 5.63642491,2.74412489 L8.75078514,15.0498477 L17.2304515,15.0498477 L21.2951192,8.86664265 C21.4754756,8.41702415 21.9840794,8.19628705 22.4356748,8.37163458 C22.8872703,8.54698211 23.1136472,9.0531008 22.9433302,9.50661746 L18.6593608,16.2539382 C18.5280129,16.5950118 18.2000562,16.819865 17.8345657,16.8194345 L8.02805496,16.8166747 Z M13.9478221,1.8931239 C13.8694649,1.79978817 13.7538387,1.7458881 13.6319724,1.7458881 C13.5101061,1.7458881 13.3944799,1.79978817 13.3161228,1.8931239 L10.1300412,5.49987855 C9.95487571,5.69711217 10.0279763,5.85848512 10.2900349,5.85848512 L12.7961432,5.85848512 L12.7961432,9.89556768 C12.7961432,10.1576263 13.0113072,10.3727903 13.2733658,10.3727903 L13.990579,10.3727903 C14.2526376,10.3727903 14.4664223,10.1576263 14.4664224,9.89556768 L14.4664224,5.85710587 L16.9725306,5.85710587 C17.2345893,5.85710587 17.3076899,5.69573292 17.1339036,5.4984993 L13.9478221,1.8931239 Z M8.77325826,22.087803 C9.26522324,22.3783612 9.87628254,22.3783612 10.3682475,22.087803 C10.8602125,21.7972448 11.1552201,21.262115 11.1382774,20.691005 C11.1382774,19.8249043 10.436164,19.1227909 9.57006325,19.1227909 C8.70396248,19.1227909 8.00184909,19.8249043 8.00184909,20.691005 C7.98628569,21.262115 8.28129328,21.7972448 8.77325826,22.087803 Z M16.1325637,20.691005 C16.1325637,21.5571058 16.8346771,22.2592192 17.7007779,22.2592192 C18.5668786,22.2592192 19.268992,21.5571058 19.268992,20.691005 C19.268992,19.8249043 18.5668786,19.1227909 17.7007779,19.1227909 C16.8346771,19.1227909 16.1325637,19.8249043 16.1325637,20.691005 Z" id="形状" fill="#A4D5CD" fill-rule="nonzero"></path>
    </g>
</svg>