<?xml version="1.0" encoding="UTF-8"?>
<svg width="34px" height="33px" viewBox="0 0 34 33" version="1.1" xmlns="http://www.w3.org/2000/svg" xmlns:xlink="http://www.w3.org/1999/xlink">
    <title>icon_bujianduan</title>
    <defs>
        <filter id="filter-1">
            <feColorMatrix in="SourceGraphic" type="matrix" values="0 0 0 0 0.780392 0 0 0 0 0.894118 0 0 0 0 0.874510 0 0 0 1.000000 0"></feColorMatrix>
        </filter>
    </defs>
    <g id="icon_bujianduan" stroke="none" stroke-width="1" fill="none" fill-rule="evenodd" transform="translate(0.000000, 0.000000)">
        <g filter="url(#filter-1)" id="bujianduan">
            <g transform="translate(6.000000, 1.000000)">
                <path d="M11.4206423,28.3862151 L11.4206423,17.9740784 L10.9910534,17.9740784 L10.9910534,24.447336 C10.9905119,25.48806 10.1466864,26.3314464 9.10596231,26.3314462 C8.06600422,26.3303642 7.22337337,25.4872945 7.22283284,24.447336 L7.22283284,13.1269816 L5.65355828,15.1866545 C5.60451844,15.2464831 5.55547863,15.3053309 5.51330438,15.3671211 L3.07406324,16.7931993 C2.4803568,17.2963079 1.5914443,17.2239137 1.08696934,16.6313679 C0.583171584,16.0384246 0.655171644,15.1493995 1.24781998,14.6452548 L3.23491387,13.5987448 C3.28591531,13.5369546 3.33299353,13.4800684 3.3771294,13.4182783 L7.04530865,8.63591403 C7.15226388,8.41940256 7.37268258,8.28221092 7.61417069,8.28183765 L14.7847746,8.28183765 C15.0267303,8.28056911 15.2479481,8.41825813 15.3536366,8.63591403 L19.0218159,13.4182783 C19.0728173,13.4800684 19.1198956,13.5369546 19.1640314,13.5987448 L21.1530869,14.6452548 C21.7446496,15.1515913 21.8164998,16.0405186 21.3139376,16.6352911 C21.0720376,16.9211488 20.726257,17.0989041 20.3530171,17.1292713 C19.9797772,17.1596384 19.6098099,17.040117 19.324882,16.7971225 L16.8876025,15.3710443 C16.8385645,15.3121936 16.7911417,15.2520157 16.745387,15.1905777 L15.2241715,13.1828871 L15.1810164,14.6893906 L15.1810164,28.3881767 C15.1804753,29.4263511 14.3390038,30.2678226 13.3008293,30.2683638 C12.8019126,30.2681037 12.3235335,30.0696604 11.97093,29.716689 C11.6183265,29.3637176 11.4203821,28.8851319 11.4206423,28.3862151 L11.4206423,28.3862151 Z M10.4319993,30.0300302 C6.49546162,29.8347205 3.01566469,27.4097537 1.46948001,23.7843175 C0.651524207,22.0186229 0.159111217,20.1197429 0.0159394352,18.1790649 C-0.000663286859,17.7737866 0.313930385,17.4315509 0.7191706,17.4140436 C1.12499951,17.3968765 1.46812696,17.7114831 1.48615353,18.1172748 C1.62647492,19.87703 2.07811111,21.5978967 2.82003691,23.1997627 C4.13930396,26.3294846 7.14463135,28.4182043 10.5379253,28.5637393 C10.942266,28.5930351 11.2466848,28.9439502 11.2185982,29.3483766 C11.192324,29.7343919 10.8718702,30.0342818 10.4849623,30.0349342 C10.4672181,30.0338898 10.44954,30.0319256 10.4319993,30.0290494 L10.4319993,30.0300302 Z M15.3889453,28.7432251 C15.1864118,28.3923725 15.30568,27.9438014 15.655722,27.7398702 C16.6073391,27.1177562 17.4450229,26.3368027 18.1322334,25.431075 C19.7372891,23.3626451 20.5492875,20.7881857 20.4214127,18.1731802 C20.4148089,17.9779185 20.4863628,17.7880882 20.620213,17.6457687 C20.7540633,17.5034492 20.9391524,17.4203978 21.1344518,17.4150244 C21.3295696,17.4089489 21.5191008,17.4806803 21.6613031,17.6144203 C21.8035054,17.7481604 21.8867156,17.93294 21.8926075,18.1280635 C22.023974,21.1087739 21.0873827,24.0385343 19.2513223,26.390294 C18.4592274,27.4237527 17.4930712,28.311249 16.3962234,29.0129441 C16.28423,29.0770435 16.1574643,29.1108477 16.0284247,29.1110249 C15.7646036,29.1114895 15.52068,28.9708219 15.3889453,28.7422443 L15.3889453,28.7432251 Z M8.5321963,6.44089125 C7.05977901,4.9678971 7.05977901,2.58031351 8.5321963,1.10731935 C9.23944044,0.399984458 10.1987238,0.00260022185 11.1989822,0.00260022185 C12.1992407,0.00260022185 13.1585241,0.399984458 13.8657682,1.10731935 C14.5731031,1.81456349 14.9704873,2.77384687 14.9704873,3.7741053 C14.9704873,4.77436373 14.5731031,5.73364711 13.8657682,6.44089125 C13.1591419,7.14910868 12.1994277,7.54654827 11.1989822,7.54527131 C10.1980773,7.54644101 9.23798207,7.14863683 8.53121552,6.43991047 L8.5321963,6.44089125 Z" id="形状" fill="#000000" fill-rule="nonzero"></path>
            </g>
        </g>
    </g>
</svg>