<?xml version="1.0" encoding="UTF-8"?>
<svg width="33px" height="33px" viewBox="0 0 33 33" version="1.1" xmlns="http://www.w3.org/2000/svg" xmlns:xlink="http://www.w3.org/1999/xlink">
    <title>icon_continuity</title>
    <g id="icon_continuity" stroke="none" stroke-width="1" fill="none" fill-rule="evenodd">
        <g id="bujianduan" transform="translate(6.000000, 1.000000)">
            <path d="M10.3824021,29.4420137 L10.3824021,19.976435 L9.99186669,19.976435 L9.99186669,25.8612145 C9.99137443,26.8073273 9.2242604,27.5740422 8.27814755,27.574042 C7.33273111,27.5730584 6.56670306,26.8066314 6.56621167,25.8612145 L6.56621167,15.5699833 L5.13959844,17.4424132 C5.09501676,17.4968028 5.05043512,17.5503008 5.01209489,17.6064737 L2.79460294,18.9029085 C2.25486982,19.3602799 1.44676754,19.294467 0.988153947,18.755789 C0.530155985,18.2167496 0.595610586,17.408545 1.1343818,16.9502316 L2.94083079,15.9988589 C2.98719573,15.942686 3.02999411,15.8909713 3.07011764,15.8347984 L6.40482605,11.4871946 C6.50205807,11.290366 6.70243871,11.1656463 6.92197336,11.165307 L13.4407042,11.165307 C13.6606639,11.1641537 13.861771,11.2893256 13.9578515,11.4871946 L17.2925599,15.8347984 C17.3389249,15.8909713 17.3817232,15.942686 17.4218467,15.9988589 L19.230079,16.9502316 C19.7678633,17.4105376 19.8331817,18.2186533 19.3763069,18.7593555 C19.1563978,19.0192261 18.8420518,19.1808219 18.5027428,19.2084284 C18.1634338,19.2360349 17.8270999,19.1273791 17.5680746,18.906475 L15.3523659,17.6100402 C15.3077859,17.5565397 15.2646743,17.5018325 15.2230791,17.4459797 L13.8401559,15.6208064 L13.800924,16.9903551 L13.800924,29.443797 C13.8004321,30.3875919 13.035458,31.152566 12.091663,31.153058 C11.6381024,31.1528216 11.2032123,30.9724185 10.8826636,30.6515355 C10.562115,30.3306524 10.3821655,29.8955744 10.3824021,29.4420137 L10.3824021,29.4420137 Z M9.48363574,30.9363911 C5.90496511,30.7588369 2.74151335,28.5543216 1.33589092,25.2584704 C0.592294734,23.6532935 0.144646561,21.927039 0.0144903956,20.1627863 C-0.000602988054,19.7943515 0.285391259,19.4832281 0.653791455,19.4673124 C1.02272683,19.4517059 1.33466088,19.7377119 1.35104867,20.1066134 C1.47861357,21.7063909 1.88919192,23.2708152 2.56366992,24.727057 C3.7630036,27.5722587 6.49511941,29.4710948 9.57993212,29.6033994 C9.9475145,29.6300319 10.2242589,29.9490456 10.1987256,30.316706 C10.17484,30.667629 9.88351836,30.9402561 9.53178392,30.9408493 C9.51565281,30.9398998 9.49958182,30.9381141 9.48363574,30.9354995 L9.48363574,30.9363911 Z M13.9899503,29.7665683 C13.8058289,29.4476114 13.9142546,29.0398194 14.2324745,28.8544274 C15.097581,28.2888693 15.8591117,27.5789115 16.4838486,26.7555227 C17.9429901,24.8751319 18.6811705,22.5347143 18.5649206,20.1574365 C18.5589172,19.9799259 18.6239662,19.8073529 18.7456482,19.6779716 C18.8673303,19.5485902 19.0355931,19.4730889 19.213138,19.468204 C19.3905179,19.4626808 19.5628189,19.5278911 19.6920937,19.649473 C19.8213685,19.7710549 19.8970142,19.9390364 19.9023705,20.1164214 C20.0217945,22.8261581 19.1703479,25.4895767 17.5012021,27.62754 C16.7811159,28.5670479 15.902792,29.3738628 14.9056576,30.0117674 C14.8038455,30.0700395 14.6886039,30.1007706 14.5712952,30.1009318 C14.3314578,30.1013541 14.1097091,29.9734745 13.9899503,29.7656766 L13.9899503,29.7665683 Z M7.75654209,9.49171932 C6.41798092,8.15263373 6.41798092,5.98210319 7.75654209,4.64301759 C8.39949131,3.99998587 9.27156711,3.63872747 10.180893,3.63872747 C11.0902188,3.63872747 11.9622946,3.99998587 12.6052438,4.64301759 C13.2482755,5.28596681 13.6095339,6.15804261 13.6095339,7.06736846 C13.6095339,7.9766943 13.2482755,8.8487701 12.6052438,9.49171932 C11.9628563,10.1355533 11.0903888,10.4968621 10.180893,10.4957012 C9.2709794,10.4967646 8.39816551,10.1351244 7.75565047,9.4908277 L7.75654209,9.49171932 Z" id="形状" fill="#C7E4DF" fill-rule="nonzero"></path>
            <path d="M0.909090909,0 C1.81491071,7.23255087 4.98727307,10.8488263 10.426178,10.8488263 C15.8650829,10.8488263 18.8481341,7.23255087 19.3753316,0" id="路径-8" stroke="#A4D5CD" stroke-linecap="round" stroke-dasharray="2,2" transform="translate(10.142211, 5.424413) scale(1, -1) translate(-10.142211, -5.424413) "></path>
        </g>
    </g>
</svg>