<?xml version="1.0" encoding="UTF-8"?>
<svg width="24px" height="24px" viewBox="0 0 24 24" version="1.1" xmlns="http://www.w3.org/2000/svg" xmlns:xlink="http://www.w3.org/1999/xlink">
    <title>icon_resell-on</title>
    <g id="icon_resell-on" stroke="none" stroke-width="1" fill="none" fill-rule="evenodd">
        <path d="M8.86500989,18.0298593 C9.32889735,18.4273502 9.40663673,19.373939 9.00901891,19.8370414 C8.67002423,20.2319842 7.99076044,20.2109631 7.56637988,19.9638053 L7.38286396,19.7956361 C6.73193356,19.1985519 6.08198048,18.6004037 5.43300733,18.0011941 L5.40560738,17.9757139 C4.14712149,16.8125435 3.38884391,16.1016463 3.2932627,15.9857115 C3.02117486,15.6551061 2.91412391,15.1990108 3.07661196,14.7989719 C3.24865813,14.3772748 3.54559709,14.1428571 3.91008009,14.1428571 L19.9511555,14.1428571 C20.5380242,14.1428571 21,14.671571 21,15.3200417 C21,16.0818992 20.5380242,16.609339 19.8517511,16.609339 L7.20826896,16.609339 L8.86500989,18.0298593 Z M15.1351809,5.11328785 C14.6712861,4.71576148 14.5935455,3.76908811 14.9911696,3.3059444 C15.3301696,2.91096628 16.009444,2.93198931 16.4338313,3.17853211 L16.6173501,3.3473534 C17.2682911,3.9444905 17.9182544,4.54269204 18.5672374,5.14195562 L18.5946377,5.16743808 C19.8531434,6.33071236 20.6120701,7.04231004 20.7070156,7.15698111 C20.9791077,7.48825308 21.0855232,7.94438911 20.9236698,8.34382667 C20.7516209,8.76619843 20.4546773,9 20.0895513,9 L4.04886094,9 C3.4619831,9 3,8.47251309 3,7.82334743 C3,7.06142189 3.4619831,6.53329791 4.14826696,6.53329791 L16.7913106,6.53329791 L15.1351809,5.11328785 L15.1351809,5.11328785 Z" id="形状" fill="#FFFFFF" fill-rule="nonzero"></path>
    </g>
</svg>