<?xml version="1.0" encoding="UTF-8"?>
<svg width="24px" height="24px" viewBox="0 0 24 24" version="1.1" xmlns="http://www.w3.org/2000/svg" xmlns:xlink="http://www.w3.org/1999/xlink">
    <title>icon_SendMoney</title>
    <defs>
        <filter id="filter-1">
            <feColorMatrix in="SourceGraphic" type="matrix" values="0 0 0 0 0.643137 0 0 0 0 0.835294 0 0 0 0 0.803922 0 0 0 1.000000 0"></feColorMatrix>
        </filter>
    </defs>
    <g id="icon_SendMoney" stroke="none" stroke-width="1" fill="none" fill-rule="evenodd">
        <g filter="url(#filter-1)" id="zhuanzhang">
            <g transform="translate(5.000000, 6.000000)">
                <path d="M12.2477127,2.93853969 L4.17558817,2.93853969 L5.11130585,2.08079848 C5.47311668,1.75017823 5.49806915,1.18250951 5.16432985,0.820698669 L5.11754396,0.767674667 C4.78692372,0.405863831 4.21925499,0.380911359 3.85744415,0.714650665 L1.14074382,3.20677875 C0.778932985,3.537399 0.753980513,4.10506773 1.08771982,4.46687856 L1.1345057,4.51990257 C1.34972077,4.75383199 1.66162666,4.8442847 1.95169914,4.79437975 L12.2477127,4.79437975 C12.7374049,4.79437975 13.1397635,4.39202115 13.1397635,3.9023289 L13.1397635,3.83059054 C13.1366445,3.33777923 12.7374049,2.93853969 12.2477127,2.93853969 L12.2477127,2.93853969 Z" id="路径" fill="#000000" fill-rule="nonzero"></path>
                <path d="M12.7904289,6.5753624 C12.5752139,6.34143298 12.263308,6.25098028 11.9732355,6.30088522 L1.67722196,6.30088522 C1.18752971,6.30088522 0.785171103,6.70324382 0.785171103,7.19293607 L0.785171103,7.26467443 C0.785171103,7.75436668 1.18752971,8.15672529 1.67722196,8.15672529 L9.74934648,8.15672529 L8.8136288,9.01446649 C8.45181797,9.34508674 8.42686549,9.91275547 8.7606048,10.2745663 L8.80739068,10.3275903 C9.13801093,10.6894011 9.70567966,10.7143536 10.0674905,10.3806143 L12.7841908,7.88848622 C13.1460017,7.55786597 13.1709541,6.99019724 12.8372148,6.62838641 L12.7904289,6.5753624 L12.7904289,6.5753624 Z" id="路径" fill="#000000" fill-rule="nonzero"></path>
            </g>
        </g>
    </g>
</svg>