<?xml version="1.0" encoding="UTF-8"?>
<svg width="34px" height="33px" viewBox="0 0 34 33" version="1.1" xmlns="http://www.w3.org/2000/svg" xmlns:xlink="http://www.w3.org/1999/xlink">
    <title>icon_BurnCalories</title>
    <defs>
        <filter id="filter-1">
            <feColorMatrix in="SourceGraphic" type="matrix" values="0 0 0 0 0.780392 0 0 0 0 0.894118 0 0 0 0 0.874510 0 0 0 1.000000 0"></feColorMatrix>
        </filter>
    </defs>
    <g id="icon_BurnCalories" stroke="none" stroke-width="1" fill="none" fill-rule="evenodd" transform="translate(0.000000, 0.000000)">
        <g filter="url(#filter-1)" id="reliangbiao">
            <g transform="translate(1.000000, 1.000000)">
                <path d="M15.75,3.5 C9.26065419,3.5 4,8.76065419 4,15.25 C4,21.7393458 9.26065419,27 15.75,27 C22.2393458,27 27.5,21.7393458 27.5,15.25 C27.5,12.1337062 26.2620571,9.14504777 24.0585047,6.94149532 C21.8549522,4.73794287 18.8662938,3.5 15.75,3.5 Z M26.6775,14.8471429 L25.9792143,14.8471429 C25.7511601,14.8471429 25.5662857,15.0320173 25.5662857,15.2600714 C25.5662857,15.4881256 25.7511601,15.673 25.9792143,15.673 L26.6775,15.673 C26.6186098,17.3147005 26.188172,18.9216684 25.4185714,20.373 L24.8142857,20.0372857 C24.6172852,19.9280114 24.3690553,19.9968011 24.2563997,20.1918878 C24.143744,20.3869744 24.2082424,20.6363537 24.4013571,20.7523571 L25.0056428,21.0880715 C23.0054974,24.2715539 19.5096731,26.2037146 15.75,26.2037146 C11.9903269,26.2037146 8.49450252,24.2715539 6.49435713,21.0880715 L7.09864286,20.7523571 C7.29175783,20.6363538 7.35625643,20.3869743 7.24360068,20.1918875 C7.13094493,19.9968007 6.88271482,19.9280111 6.68571427,20.0372857 L6.08142857,20.373 C5.311828,18.9216684 4.88139016,17.3147005 4.8225,15.673 L5.52414284,15.673 C5.75219699,15.673 5.93707141,15.4881256 5.93707141,15.2600714 C5.93707141,15.0320173 5.75219699,14.8471429 5.52414284,14.8471429 L4.8225,14.8471429 C4.88185394,13.2055119 5.31226445,11.598646 6.08142857,10.1471429 L6.68571427,10.4996429 C6.88410284,10.61367 7.13736577,10.5452814 7.25139285,10.3468929 C7.36541993,10.1485043 7.29703143,9.89524137 7.09864286,9.78121429 L6.49435713,9.44550001 C7.36664534,8.05886324 8.5362881,6.88348694 9.91864285,6.00442858 L10.2543571,6.6087143 C10.3683842,6.80710287 10.6216471,6.87549137 10.8200357,6.76146429 C11.0184243,6.64743721 11.0868128,6.39417429 10.9727857,6.19578572 L10.6202857,5.59150002 C12.0717889,4.8223359 13.6786548,4.39192539 15.3202857,4.33257145 L15.3202857,5.03421429 C15.3202857,5.26226844 15.5051601,5.44714286 15.7332143,5.44714286 C15.9612684,5.44714286 16.1461428,5.26226844 16.1461428,5.03421429 L16.1461428,4.33257145 C17.7878433,4.3914616 19.3948112,4.82189944 20.8461428,5.59150002 L20.5104286,6.19578572 C20.4335891,6.32370378 20.4317425,6.48312707 20.5055985,6.6127906 C20.5794546,6.74245413 20.7175216,6.82218298 20.8667417,6.82133805 C21.0159617,6.82049312 21.153117,6.73920588 21.2255,6.6087143 L21.5612143,6.00442858 C22.9492804,6.87606026 24.1258851,8.04578422 25.0056428,9.4287143 L24.4013571,9.76442858 C24.2029686,9.87845565 24.1345801,10.1317186 24.2486071,10.3301071 C24.3626342,10.5284957 24.6158971,10.5968842 24.8142857,10.4828572 L25.4185714,10.1303571 C26.1901842,11.5869205 26.6206685,13.1998016 26.6775,14.8471429 Z" id="形状" fill="#000000" fill-rule="nonzero"></path>
                <path d="M13.91505,22.5 L17.58495,22.5 C18.1949833,22.5 18.5,22.8327454 18.5,23.4982363 L18.5,23.5017637 C18.5,24.1672546 18.1949833,24.5 17.58495,24.5 L13.91505,24.5 C13.3050167,24.5 13,24.1672546 13,23.5017637 L13,23.4982363 C13,22.8327454 13.3050167,22.5 13.91505,22.5 L13.91505,22.5 Z" id="路径" fill="#000000" fill-rule="nonzero"></path>
                <path d="M20.4778749,17.1865865 C20.3499961,18.7231268 19.3841745,20.2563627 17.028512,20.9172403 C15.9381769,21.2476791 16.0727861,20.4909743 16.3554656,20.3554944 C18.1794214,19.4269614 17.2371564,17.685549 16.7189107,17.2791093 C16.200665,16.8726697 15.8742374,15.8648314 15.8742374,15.8648314 C14.7551197,16.2616829 13.9690111,17.2561418 13.8550982,18.4191231 C13.7808112,19.1879247 14.1545469,19.9321111 14.8209198,20.3422768 C15.3189741,20.411669 15.201191,21.1882001 14.5214142,20.9040227 C12.5022749,20.4347997 11.0081119,18.8652155 11.0081119,16.9982364 L11.0081119,16.8231038 C11.0081119,16.8231038 10.7658152,14.9230808 12.9296594,13.3105396 C14.0772035,12.4547031 14.4541095,10.7397259 14.5146837,10.2705028 C14.5752579,9.80127975 14.9117811,9.33536106 15.2180172,9.55675505 C17.4592617,11.1858182 20.5216229,13.4493239 20.494701,16.4959694 C20.5054567,16.7262792 20.4998343,16.9570452 20.4778749,17.1865865 L20.4778749,17.1865865 Z" id="路径" fill="#000000" fill-rule="nonzero"></path>
                <path d="M15.5035679,3.62577968e-07 C9.23388678,-0.00135093859 3.58087004,3.7745521 1.18094252,9.56672364 C-1.21898501,15.3588952 0.106897401,22.0264343 4.54023154,26.4597684 C8.97356568,30.8931026 15.6411048,32.218985 21.4332763,29.8190575 C27.2254479,27.41913 31.0013509,21.7661133 31,15.4964321 C30.9907899,6.94180697 24.0581931,0.00921016523 15.5035679,3.62577968e-07 Z M15.5035679,29.0746078 C8.00454853,29.0746078 1.9253922,22.9954515 1.9253922,15.4964321 C1.9253922,7.99741275 8.00454853,1.91825642 15.5035679,1.91825642 C23.0025873,1.91825642 29.0817436,7.99741275 29.0817436,15.4964321 C29.0743748,22.9923971 22.9995329,29.067239 15.5035679,29.0746078 Z" id="形状" fill="#000000" fill-rule="nonzero"></path>
            </g>
        </g>
    </g>
</svg>