<?xml version="1.0" encoding="UTF-8"?>
<svg width="38px" height="33px" viewBox="0 0 38 33" version="1.1" xmlns="http://www.w3.org/2000/svg" xmlns:xlink="http://www.w3.org/1999/xlink">
    <title>icon_AtTabBar_market-on</title>
    <defs>
        <filter id="filter-1">
            <feColorMatrix in="SourceGraphic" type="matrix" values="0 0 0 0 0.564706 0 0 0 0 0.780392 0 0 0 0 0.745098 0 0 0 1.000000 0"></feColorMatrix>
        </filter>
    </defs>
    <g id="icon_AtTabBar_market-on" stroke="none" stroke-width="1" fill="none" fill-rule="evenodd">
        <g id="编组-14" transform="translate(0.000000, 9.000000)" fill="#C7E4DF">
            <rect id="矩形" x="0" y="0" width="38" height="18" rx="9"></rect>
        </g>
        <g filter="url(#filter-1)" id="shangcheng-2">
            <g transform="translate(8.000000, 6.000000)">
                <path d="M21.9625493,18.3780962 L21.0275493,2.87099095 C20.9305757,1.26730674 19.6018914,0.0167804276 17.9967599,0.0167804276 L3.99202303,0.0167804276 C2.38544408,0.0167804276 1.05820724,1.26730674 0.961233553,2.87099095 L0.0262335526,18.3780962 C-0.0794243421,20.1236225 1.30860197,21.5970447 3.05702303,21.5970447 L18.9317599,21.5970447 C20.6801809,21.598491 22.0682072,20.1250699 21.9625493,18.3780962 Z M17.258602,6.62835938 C16.8779441,9.74888569 14.2147862,12.1732278 10.9929441,12.1732278 C7.77254934,12.1732278 5.10794408,9.74888569 4.72873355,6.62835937 C4.30899671,6.30704359 4.03689145,5.80191201 4.03689145,5.23309622 C4.03689145,4.26191201 4.82425987,3.47454359 5.79544408,3.47454359 C6.76662829,3.47454359 7.55399671,4.26191201 7.55399671,5.23309622 C7.55399671,5.75270148 7.32675987,6.21875411 6.96925987,6.5400699 C7.29491776,8.46796464 8.97386513,9.94138569 10.9929441,9.94138569 C13.012023,9.94138569 14.6924178,8.46796464 15.0166283,6.5400699 C14.6440894,6.20785261 14.4313053,5.73224873 14.4318914,5.23309622 C14.4318914,4.26191201 15.2192599,3.47454359 16.1904441,3.47454359 C17.1616283,3.47454359 17.9490025,4.26191201 17.9490025,5.23309622 C17.9504441,5.80191201 17.6783388,6.30704359 17.258602,6.62835937 L17.258602,6.62835938 Z" id="形状" fill="#C1F2EA" fill-rule="nonzero"></path>
            </g>
        </g>
    </g>
</svg>