<?xml version="1.0" encoding="UTF-8"?>
<svg width="38px" height="33px" viewBox="0 0 38 33" version="1.1" xmlns="http://www.w3.org/2000/svg" xmlns:xlink="http://www.w3.org/1999/xlink">
    <title>icon_AtTabBar_community-on</title>
    <g id="icon_AtTabBar_community-on" stroke="none" stroke-width="1" fill="none" fill-rule="evenodd">
        <g id="编组-14" transform="translate(0.000000, 9.000000)" fill="#C7E4DF">
            <rect id="矩形" x="0" y="0" width="38" height="18" rx="9"></rect>
        </g>
        <path d="M18.7307692,4 C21.258534,4 23.3076923,6.04915826 23.3076923,8.57692308 C23.3076923,9.73393666 22.8783743,10.7906777 22.1703497,11.5965347 L27.2050212,20.3177039 C27.5928507,20.2108974 28.0013013,20.1538462 28.4230769,20.1538462 C30.9508417,20.1538462 33,22.2030044 33,24.7307692 C33,27.258534 30.9508417,29.3076923 28.4230769,29.3076923 C26.3638376,29.3076923 24.6222264,27.9477646 24.0473509,26.0770169 L13.9526491,26.0770169 C13.3777736,27.9477646 11.6361624,29.3076923 9.57692308,29.3076923 C7.04915826,29.3076923 5,27.258534 5,24.7307692 C5,22.2030044 7.04915826,20.1538462 9.57692308,20.1538462 C9.99869869,20.1538462 10.4071493,20.2108974 10.7949788,20.3177039 L15.629451,11.9429694 C14.7221816,11.10663 14.1538462,9.90814748 14.1538462,8.57692308 C14.1538462,6.04915826 16.2030044,4 18.7307692,4 Z M19.875867,13.0094298 C19.5098871,13.1037035 19.1261839,13.1538462 18.7307692,13.1538462 C18.5053812,13.1538462 18.2837983,13.1375546 18.0671339,13.1060847 L13.0660774,21.7685276 C13.4630515,22.235654 13.7678885,22.7835188 13.9524986,23.3840322 L24.0475014,23.3840322 C24.2321115,22.7835188 24.5369485,22.235654 24.9339226,21.7685276 Z" id="形状结合" fill="#90C7BE"></path>
    </g>
</svg>