<?xml version="1.0" encoding="UTF-8"?>
<svg width="67px" height="44px" viewBox="0 0 67 44" version="1.1" xmlns="http://www.w3.org/2000/svg" xmlns:xlink="http://www.w3.org/1999/xlink">
    <title>icon_home_AddDevice</title>
    <g id="icon_home_AddDevice" stroke="none" stroke-width="1" fill="none" fill-rule="evenodd">
        <g id="tiaosheng-4" fill="#FFFFFF" fill-rule="nonzero">
            <path d="M42.3681641,0.009765625 L20.703125,0.009765625 C20.0048828,0.009765625 19.4384766,0.576171875 19.4384766,1.27441406 L19.4384766,8.07617187 C19.4384766,8.77441406 20.0048828,9.34082031 20.703125,9.34082031 L42.3681641,9.34082031 C43.0664062,9.34082031 43.6328125,8.77441406 43.6328125,8.07617187 L43.6328125,1.27441406 C43.6328125,0.576171875 43.0664062,0.009765625 42.3681641,0.009765625 L42.3681641,0.009765625 Z M22.9492188,34.4042969 L1.28417969,34.4042969 C0.5859375,34.4042969 0.01953125,34.9707031 0.01953125,35.6689453 L0.01953125,42.4707031 C0.01953125,43.1689453 0.5859375,43.7353516 1.28417969,43.7353516 L22.9492188,43.7353516 C23.6474609,43.7353516 24.2138672,43.1689453 24.2138672,42.4707031 L24.2138672,35.6640625 C24.2138672,34.9658203 23.6474609,34.4042969 22.9492188,34.4042969 Z" id="形状"></path>
            <path d="M34.0380859,39.9414062 L23.1201172,39.9414062 L23.1201172,38.7744141 L34.0380859,38.7744141 C38.8427734,38.7744141 42.7539062,35.1806641 42.7539062,30.7617188 C42.7539062,26.3427734 38.8427734,22.7490234 34.0380859,22.7490234 L23.8330078,22.7490234 L23.8330078,21.5820312 L34.0380859,21.5820312 C39.4873047,21.5820312 43.9208984,25.6982422 43.9208984,30.7617188 C43.9208984,35.8251953 39.4873047,39.9414062 34.0380859,39.9414062 Z" id="路径" stroke="#FFFFFF"></path>
            <path d="M24.1503906,22.7441406 L10.2490234,22.7441406 C4.77050781,22.7441406 0.317382812,18.5595703 0.317382812,13.4179687 C0.317382812,8.27636719 4.77539062,4.09179687 10.2490234,4.09179687 L20.9228516,4.09179687 L20.9228516,5.25878906 L10.2490234,5.25878906 C5.41503906,5.25878906 1.47949219,8.92089844 1.47949219,13.4179687 C1.47949219,17.9150391 5.41503906,21.5771484 10.2490234,21.5771484 L24.1552734,21.5771484 L24.1552734,22.7441406 L24.1503906,22.7441406 Z" id="路径" stroke="#FFFFFF"></path>
            <path d="M64.7221993,7.5555678 L59.2222131,7.5555678 L59.2222131,2.05558155 C59.2222131,1.04306204 58.4014038,0.222252797 57.3888843,0.222252797 C56.3763648,0.222252797 55.5555556,1.04306204 55.5555556,2.05558155 L55.5555556,7.5555678 L50.0555693,7.5555678 C49.0430498,7.5555678 48.2222406,8.37637704 48.2222406,9.38889655 C48.2222406,10.4014161 49.0430498,11.2222253 50.0555693,11.2222253 L55.5555556,11.2222253 L55.5555556,16.7222115 C55.5555555,17.3771968 55.904986,17.9824282 56.4722199,18.3099209 C57.0394538,18.6374135 57.7383148,18.6374135 58.3055487,18.3099209 C58.8727826,17.9824282 59.2222131,17.3771968 59.2222131,16.7222115 L59.2222131,11.2222253 L64.7221993,11.2222253 C65.7347188,11.2222253 66.5555281,10.4014161 66.5555281,9.38889655 C66.5555281,8.37637704 65.7347188,7.5555678 64.7221993,7.5555678 Z" id="路径"></path>
        </g>
    </g>
</svg>