<?xml version="1.0" encoding="UTF-8"?>
<svg width="24px" height="24px" viewBox="0 0 24 24" version="1.1" xmlns="http://www.w3.org/2000/svg" xmlns:xlink="http://www.w3.org/1999/xlink">
    <title>icon_home_left-arrow</title>
    <g id="icon_home_left-arrow" stroke="none" stroke-width="1" fill="none" fill-rule="evenodd">
        <polygon id="路径" fill="#A4D5CD" fill-rule="nonzero" points="17.333171 10.666737 17.333171 7.99990813 14.6665848 7.99990813 14.6665848 5.33330028 11.9999741 5.33330028 11.9999741 2.66666243 9.33336062 2.66666243 9.33336062 0 4 0 4 2.66666243 6.66677444 2.66666243 6.66677444 5.33330028 9.33336062 5.33330028 9.33336062 7.99990813 11.9999741 7.99990813 11.9999741 10.666737 14.6665848 10.666737 14.6665848 13.333263 11.9999741 13.333263 11.9999741 16.0000919 9.33336062 16.0000919 9.33336062 18.6666997 6.66677444 18.6666997 6.66677444 21.3333649 4 21.3333649 4 24 9.33336062 24 9.33336062 21.3333649 11.9999741 21.3333649 11.9999741 18.6666997 14.6665848 18.6666997 14.6665848 16.0000919 17.333171 16.0000919 17.333171 13.333263 20 13.333263 20 10.666737"></polygon>
    </g>
</svg>