<?xml version="1.0" encoding="UTF-8"?>
<svg width="24px" height="24px" viewBox="0 0 24 24" version="1.1" xmlns="http://www.w3.org/2000/svg" xmlns:xlink="http://www.w3.org/1999/xlink">
    <title>icon_Credit-off</title>
    <g id="icon_Credit-off" stroke="none" stroke-width="1" fill="none" fill-rule="evenodd">
        <path d="M16.4,3 C20.041,3 23,5.959 23,9.6 C23,11.987 21.57,13.626 20.228,14.968 C20.217,14.979 20.206,14.99 20.195,14.99 L13.078,21.161 C12.77,21.425 12.385,21.557 12,21.557 C11.615,21.557 11.23,21.425 10.922,21.161 L3.805,14.99 C3.794,14.979 3.783,14.968 3.772,14.968 C2.408,13.593 1,11.888 1,9.6 C1,5.959 3.959,3 7.6,3 C9.25,3 10.79,3.594 12,4.683 C13.21,3.594 14.75,3 16.4,3 Z M16.499,6.08 L16.4,6.08 C16.103,6.091 15.861,6.344 15.872,6.652 C15.883,6.949 16.136,7.191 16.444,7.18 L16.444,7.18 L16.51,7.18 C17.72,7.18 18.71,8.17 18.71,9.38 C18.71,10.062 18.402,10.689 17.874,11.107 C17.643,11.294 17.599,11.635 17.786,11.877 C17.896,12.009 18.05,12.086 18.215,12.086 C18.336,12.086 18.446,12.053 18.545,11.976 C19.337,11.338 19.799,10.392 19.799,9.38 C19.799,7.565 18.314,6.08 16.499,6.08 L16.499,6.08 Z" id="形状结合" fill="#C7E4DF" fill-rule="nonzero"></path>
    </g>
</svg>